<?xml version="1.0" encoding="UTF-8" standalone="no"?>
<!-- Created with Inkscape (http://www.inkscape.org/) -->

<svg
   width="193.89178mm"
   height="130.30338mm"
   viewBox="0 0 193.89178 130.30338"
   version="1.1"
   id="svg5"
   xml:space="preserve"
   inkscape:export-filename="ronaldo.svg"
   inkscape:export-xdpi="16.479124"
   inkscape:export-ydpi="16.479124"
   inkscape:version="1.2.1 (9c6d41e, 2022-07-14)"
   sodipodi:docname="logosports.svg"
   xmlns:inkscape="http://www.inkscape.org/namespaces/inkscape"
   xmlns:sodipodi="http://sodipodi.sourceforge.net/DTD/sodipodi-0.dtd"
   xmlns="http://www.w3.org/2000/svg"
   xmlns:svg="http://www.w3.org/2000/svg"><sodipodi:namedview
     id="namedview7"
     pagecolor="#ffffff"
     bordercolor="#000000"
     borderopacity="0.25"
     inkscape:showpageshadow="2"
     inkscape:pageopacity="0.0"
     inkscape:pagecheckerboard="0"
     inkscape:deskcolor="#d1d1d1"
     inkscape:document-units="mm"
     showgrid="false"
     inkscape:zoom="0.61056044"
     inkscape:cx="473.33562"
     inkscape:cy="610.09521"
     inkscape:window-width="1728"
     inkscape:window-height="1051"
     inkscape:window-x="0"
     inkscape:window-y="38"
     inkscape:window-maximized="0"
     inkscape:current-layer="g13280" /><defs
     id="defs2" /><g
     inkscape:label="Layer 1"
     inkscape:groupmode="layer"
     id="layer1"
     transform="translate(-14.478139,-101.9861)"><g
       id="g13280"
       transform="translate(-114.83643,223.60604)"><path
         style="fill:#f39618;stroke-width:0.264583"
         d="m 211.22748,-4.3403905 c -0.40019,-0.21711 -0.72761,-0.47614 -0.72761,-0.57563 0,-0.0995 0.52105,-0.72077 1.15789,-1.38062 3.73208,-3.8668695 7.0981,-10.8160695 8.49889,-17.5461195 0.26599,-1.27792 0.62136,-2.51187 0.78971,-2.74211 0.29027,-0.39696 2.32704,-0.78206 25.00768,-4.728299 1.38244,-0.240533 2.71444,-0.492448 2.96,-0.559808 0.33059,-0.09069 0.96352,0.653253 2.43887,2.866657 2.77001,4.15573 7.68716,9.47867 10.67456,11.5555 0.47295,0.32879 0.8599,0.70272 0.8599,0.83095 0,0.37927 -1.68498,1.84493 -2.12253,1.84625 -0.22151,8e-4 -0.85521,-0.37174 -1.40823,-0.82758 l -1.00549,-0.82881 -6.92614,1.35458 c -3.80938,0.74502 -9.36693,1.78196 -12.35011,2.30431 -2.98318,0.52235 -9.05536,1.59265 -13.49375,2.37844 l -8.06979,1.4287095 -2.38125,2.52628 c -1.30969,1.38945 -2.55984,2.51857 -2.77813,2.50915 -0.21828,-0.009 -0.72429,-0.19475 -1.12447,-0.41185 z m 16.6026,-15.4448695 c 2.47385,-0.43413 6.28385,-1.09191 8.46666,-1.46172 8.44285,-1.4304 15.20289,-2.68697 15.37359,-2.85767 0.19003,-0.19004 -0.48916,-1.11982 -2.33544,-3.19713 l -1.14174,-1.2846 -5.55133,0.95899 c -3.05323,0.52744 -8.34929,1.43724 -11.76903,2.02179 -3.41974,0.58454 -6.60212,1.18594 -7.07196,1.33645 -0.89006,0.28513 -0.83848,0.17326 -2.09035,4.53345 -0.20017,0.69716 0.10854,0.99021 0.90434,0.85849 0.39454,-0.0653 2.7414,-0.47393 5.21526,-0.90805 z m -32.80833,14.2930595 c -2.96357,-1.5202 -9.22939,-6.3380795 -8.80786,-6.7724895 0.10339,-0.10655 2.72276,-0.65385 5.82083,-1.21622 8.83298,-1.6034 14.02445,-2.61381 14.96224,-2.91208 0.73218,-0.23287 1.02243,-0.60434 1.91823,-2.45507 0.58053,-1.19938 1.05551,-2.38445 1.05551,-2.6335 0,-0.56592 -0.79788,-0.48268 -7.67291,0.8005 -6.23927,1.16451 -18.54692,3.27455 -20.12904,3.45095 -1.16677,0.13009 -1.24353,0.0944 -2.08632,-0.96969 -0.4986,-0.62953 -0.77422,-1.20127 -0.64075,-1.32914 0.21231,-0.20338 5.91334,-1.23914 21.26861,-3.86406 5.31642,-0.90882 10.52832,-1.8331 11.97239,-2.12319 0.66739,-0.13407 0.72761,-0.079 0.72761,0.66545 0,1.05357 -1.4052,5.45658 -2.50901,7.86164 -2.78973,6.07847 -8.72874,11.5806695 -13.12286,12.1576995 -0.96953,0.12731 -1.44025,0.0145 -2.75667,-0.6608 z M 270.8174,-19.95233 c -2.57996,-1.23536 -5.79314,-3.3901 -7.87998,-5.28427 -2.17298,-1.97234 -5.87088,-6.847115 -5.87088,-7.739296 0,-0.415673 0.0701,-0.430037 11.11249,-2.277736 5.60255,-0.937462 11.58749,-1.969236 13.29986,-2.292832 1.71237,-0.323596 3.1871,-0.514654 3.27719,-0.424574 0.0901,0.09008 -0.0619,0.792488 -0.33774,1.560904 l -0.50152,1.397119 -3.17254,0.594585 c -1.7449,0.327019 -6.58957,1.179478 -10.76594,1.894348 -4.17636,0.714869 -7.71847,1.377068 -7.87135,1.471551 -0.57202,0.353528 -0.22569,0.916683 1.67281,2.720071 3.02571,2.87413 7.31094,5.56572 9.82319,6.17004 0.7276,0.17502 1.42991,0.41499 1.56068,0.53325 0.3934,0.35576 -1.37124,2.62345 -2.04147,2.62345 -0.18034,0 -1.2175,-0.42598 -2.3048,-0.94661 z m -125.77695,0.41027 c -1.98265,-0.3442 -4.42165,-1.67269 -5.82462,-3.17258 -2.42202,-2.58933 -3.60156,-6.522542 -2.80705,-9.360228 0.40231,-1.43693 1.55281,-2.62093 2.4266,-2.497269 0.59564,0.08429 0.6309,0.207999 0.77919,2.734122 0.21633,3.685235 1.17355,5.595245 3.31287,6.610425 0.8377,0.39752 1.21947,0.41846 2.97964,0.16349 3.79268,-0.5494 20.23327,-3.36792 29.5355,-5.063453 2.32833,-0.424392 5.60255,-1.003342 7.27604,-1.286563 1.67349,-0.283218 5.40604,-0.954659 8.29455,-1.492088 5.72178,-1.064583 6.52212,-1.035577 6.52212,0.236371 0,0.900207 -0.4225,1.151032 -2.51848,1.495149 -1.01593,0.166796 -5.77621,1.004822 -10.5784,1.862275 -4.80218,0.857459 -11.1125,1.983849 -14.02291,2.503089 -2.91042,0.51924 -6.91121,1.17505 -8.89065,1.45734 -6.54528,0.93343 -10.08678,1.56853 -10.45618,1.8751 -0.20055,0.16644 -0.36463,0.74823 -0.36463,1.29287 0,1.20095 -0.78175,2.28782 -1.78916,2.48746 -1.65588,0.32817 -2.64652,0.36767 -3.87443,0.15449 z m -15.23849,-7.76564 c 0,-0.0549 0.18132,-0.25038 0.40293,-0.4343 0.33691,-0.27961 0.37562,-0.26324 0.23628,0.0999 -0.14232,0.37087 -0.63921,0.63082 -0.63921,0.3344 z m 13.05904,-3.857072 c -1.34787,-0.566648 -1.85247,-2.48711 -0.90297,-3.43661 0.67332,-0.673314 2.17091,-0.947594 2.93658,-0.537826 0.63116,0.337791 3.4349,0.182681 5.04504,-0.279104 2.69371,-0.772543 3.13045,-3.940037 0.54028,-3.918365 -1.45357,0.01217 -5.76766,-0.799618 -6.75721,-1.271497 -0.77759,-0.370809 -0.906,-0.593945 -1.20366,-2.091473 -0.41895,-2.10769 -0.20358,-3.401349 0.86407,-5.190162 1.05164,-1.761995 2.71282,-2.905567 5.08704,-3.501951 3.60312,-0.905073 6.25262,-0.881221 7.48561,0.06739 l 0.62153,0.478179 -0.62153,0.709049 c -0.52845,0.602861 -1.05741,0.787244 -3.53195,1.231172 -4.80068,0.861232 -5.48615,1.157825 -6.31666,2.733127 -0.62102,1.177939 -0.41235,2.157154 0.56581,2.655131 0.39807,0.202658 1.97393,0.517427 3.50189,0.699487 3.87955,0.462253 4.83421,1.05928 5.61475,3.511367 0.3911,1.228672 0.38264,1.302917 -0.31662,2.778125 -0.92419,1.949733 -1.92671,3.124549 -3.23651,3.79276 -1.97918,1.009702 -8.22238,2.055971 -9.37549,1.571199 z m 61.15293,-0.607097 c -0.0656,-0.181901 -0.15119,-1.402292 -0.19013,-2.711979 l -0.0708,-2.38125 -0.87584,-0.0841 c -1.41672,-0.136036 -0.98843,-0.869754 0.74355,-1.273797 1.97325,-0.460327 2.91041,-0.453713 2.91041,0.02053 0,0.210341 -0.32742,0.538996 -0.7276,0.730342 -0.70027,0.334836 -0.7301,0.432287 -0.79396,2.594126 -0.0365,1.235422 -0.12806,2.51411 -0.20348,2.841532 -0.14872,0.645652 -0.60024,0.796462 -0.79215,0.264584 z m 7.46159,-1.163064 c -0.33525,-0.335251 -0.20507,-5.784259 0.14883,-6.229416 0.45005,-0.56611 2.28958,-0.807709 3.08125,-0.404682 0.90692,0.461697 1.08938,1.213019 0.62669,2.580528 -0.39531,1.168366 -0.38383,1.27389 0.32272,2.967675 0.31205,0.748073 -0.40549,0.554371 -1.35479,-0.365728 -1.03256,-1.000792 -1.54093,-0.875501 -1.85617,0.457451 -0.22968,0.971185 -0.60562,1.35708 -0.96853,0.994172 z m 2.74591,-3.807182 c 0.66151,-0.354031 0.69405,-1.730409 0.0488,-2.062297 -0.89543,-0.460534 -1.64265,0.128291 -1.64959,1.299903 -0.006,1.064231 0.54566,1.327108 1.60084,0.762394 z m -54.85967,2.654091 c -0.78843,-0.620175 -1.2207,-2.438622 -0.72241,-3.039014 0.38172,-0.459952 0.68563,-3.925427 0.93351,-10.644875 0.12039,-3.263522 0.29527,-5.172168 0.48805,-5.326507 0.5957,-0.476935 5.63536,-1.458783 7.57646,-1.476079 1.69373,-0.01508 2.16072,0.08599 3.18832,0.690116 1.30069,0.764672 2.34592,2.356842 3.02201,4.603347 0.35209,1.169884 0.33585,1.336445 -0.28025,2.875431 -1.3037,3.256584 -3.29557,4.776811 -7.51758,5.737539 -1.38245,0.314579 -2.66237,0.688438 -2.84427,0.8308 -0.20616,0.161351 -0.33073,0.929312 -0.33073,2.03904 0,2.255158 -0.38308,3.357539 -1.33846,3.851582 -0.99669,0.515411 -1.37058,0.491104 -2.17465,-0.14138 z m 7.2046,-9.966735 c 0.75406,-0.243533 1.85727,-0.874299 2.45158,-1.401706 0.97521,-0.865423 1.09267,-1.104903 1.20473,-2.45617 0.11477,-1.38404 0.0651,-1.556268 -0.65639,-2.277797 -1.00247,-1.002475 -3.16484,-1.343936 -4.88328,-0.771123 -1.05676,0.35225 -1.15355,0.464193 -1.3386,1.548188 -0.10971,0.642667 -0.13868,1.36004 -0.0644,1.594162 0.0743,0.234122 0.14505,1.18723 0.1572,2.118016 0.0121,0.930788 0.0762,1.781638 0.14236,1.890778 0.2014,0.332328 1.54038,0.222785 2.98677,-0.244348 z m 54.25226,9.35596 c 0,-0.485076 1.41059,-4.592039 2.01629,-5.870466 0.27578,-0.582083 0.67907,-1.058333 0.89621,-1.058333 0.66271,0 3.28535,5.664305 2.83237,6.117285 -0.0884,0.08841 -0.47446,-0.08602 -0.85789,-0.387617 -0.50333,-0.395922 -0.93014,-0.508434 -1.53529,-0.40472 -1.43838,0.246515 -2.2099,0.639323 -2.56728,1.307084 -0.37364,0.698164 -0.78441,0.85357 -0.78441,0.296767 z m 3.40925,-2.803411 c 0.53286,-0.337465 0.15646,-1.674936 -0.4391,-1.560242 -0.48354,0.09312 -0.7256,0.798033 -0.48729,1.419058 0.16733,0.436062 0.40386,0.472109 0.92639,0.141184 z m 7.76108,-2.182936 c 0.0653,-2.858657 0.13133,-3.26983 0.53748,-3.347694 0.35979,-0.06898 0.46302,0.09253 0.46302,0.724384 0,1.126686 0.46984,1.030928 1.85209,-0.377475 0.64268,-0.654844 1.26278,-1.190625 1.378,-1.190625 0.46844,0 0.1566,0.936469 -0.71655,2.151824 -0.50932,0.70894 -0.92604,1.392788 -0.92604,1.519661 0,0.126873 0.53578,0.749916 1.19063,1.384543 0.65484,0.634624 1.19062,1.232181 1.19062,1.327902 0,0.509754 -0.85404,0.354875 -1.9406,-0.351923 -1.43478,-0.933312 -1.96016,-0.840502 -2.0764,0.3668 -0.0564,0.58538 -0.23929,0.902319 -0.55537,0.962213 -0.43457,0.08235 -0.46553,-0.164881 -0.39688,-3.16961 z m 10.45514,1.470863 c -0.35112,-0.351118 -0.2278,-6.364321 0.13651,-6.656271 0.1819,-0.145774 1.02535,-0.382127 1.87433,-0.525229 1.25723,-0.211918 1.57008,-0.191185 1.68633,0.111762 0.19525,0.508829 -0.0268,0.682321 -1.46311,1.142881 -1.03794,0.332836 -1.23766,0.503611 -1.23766,1.058334 0,0.589034 0.12312,0.670366 1.12448,0.742817 0.61847,0.04475 1.12448,0.169762 1.12448,0.277813 0,0.393776 -0.6497,0.831453 -1.23423,0.831453 -0.62334,0 -1.29064,0.876482 -1.01135,1.328385 0.0881,0.142513 0.6889,0.259115 1.33516,0.259115 0.98241,0 1.17501,0.08329 1.17501,0.508143 0,0.342976 -0.2365,0.555037 -0.72761,0.652412 -1.92282,0.381246 -2.60379,0.446931 -2.78234,0.268385 z m -61.12829,-0.473244 c -1.09124,-0.405315 -2.81623,-1.524953 -3.43993,-2.232758 -0.46078,-0.522912 -1.50725,-4.532222 -1.50725,-5.774692 0,-1.306579 1.1569,-4.681741 2.11828,-6.179928 1.14708,-1.78756 2.94578,-3.338746 5.02547,-4.33391 1.51842,-0.726585 1.98313,-0.821526 3.96875,-0.810791 2.64622,0.01431 3.82913,0.506351 5.40157,2.24686 0.95908,1.061585 2.26336,3.456228 2.26876,4.16543 10e-4,0.186471 0.15884,0.398994 0.34981,0.472276 0.26329,0.101034 0.2999,0.498774 0.15145,1.645343 -0.58459,4.515295 -3.24814,8.528997 -6.83985,10.306997 -1.2121,0.600022 -1.85498,0.728379 -3.96875,0.792406 -1.69333,0.05129 -2.85299,-0.0464 -3.52831,-0.297233 z m 6.07626,-3.887039 c 1.68095,-0.813734 3.42608,-2.718326 4.07746,-4.450024 1.09905,-2.921844 0.27149,-6.085265 -1.94847,-7.448229 -0.93341,-0.573077 -2.06178,-0.532398 -4.59266,0.165565 -1.84215,0.508027 -3.85653,2.651107 -4.32417,4.60044 -0.17601,0.733684 -0.42712,1.400164 -0.55802,1.481063 -0.65039,0.401966 0.36565,3.842338 1.41836,4.802608 1.63021,1.487072 3.92879,1.816135 5.9275,0.848577 z m 64.03003,2.754953 c -0.33792,-0.337918 -0.19849,-6.09142 0.15434,-6.369081 0.90258,-0.71028 3.44436,-0.531702 3.95932,0.278169 0.3331,0.523862 0.23247,1.748078 -0.21477,2.612948 -0.33001,0.638175 -0.359,0.956937 -0.13229,1.454518 0.66203,1.452983 0.0485,1.895401 -1.03257,0.744628 -0.83144,-0.885026 -1.5343,-0.858259 -1.73685,0.06615 -0.31391,1.432603 -0.52299,1.686865 -0.99718,1.212673 z m 2.58451,-3.785812 c 0.52076,-0.19799 0.67869,-0.443087 0.67869,-1.053293 0,-0.641021 -0.13695,-0.829627 -0.7061,-0.972476 -0.54659,-0.137186 -0.81555,-0.04205 -1.19063,0.421146 -0.75236,0.929134 -0.59629,1.731753 0.35815,1.841769 0.0997,0.01148 0.48662,-0.09523 0.85989,-0.237146 z m -55.53027,2.315829 c -0.33582,-0.479454 -0.41188,-1.469249 -0.41188,-5.360312 0,-4.420973 0.0374,-4.79565 0.50847,-5.089819 0.45313,-0.282985 0.51792,-0.70672 0.59532,-3.89351 0.10525,-4.333925 0.18297,-4.456408 3.2956,-5.193646 3.16939,-0.750684 5.858,-0.921634 6.99694,-0.444886 1.35782,0.568364 2.72371,1.856232 3.28217,3.09468 0.26572,0.589251 0.58113,1.071367 0.70091,1.071367 0.27454,0 0.0698,1.21667 -0.58821,3.495526 -0.41292,1.430073 -0.79512,2.08075 -1.96342,3.342656 -0.79788,0.861803 -1.45069,1.686957 -1.45069,1.833668 0,0.146714 0.53645,0.863415 1.19211,1.592673 1.60482,1.78494 1.76605,2.654797 0.66395,3.582148 -1.53237,1.289405 -2.19944,1.053 -4.80966,-1.704504 -2.10619,-2.225029 -2.35292,-2.406223 -3.04123,-2.233469 -1.29097,0.324014 -1.41351,0.581311 -1.41351,2.968016 0,2.013376 -0.0627,2.291302 -0.64943,2.878019 -0.86155,0.861549 -2.32534,0.892458 -2.90744,0.06139 z m 7.9225,-9.934955 c 2.09587,-0.80291 3.45816,-2.629977 3.2299,-4.331835 -0.16562,-1.234726 -0.89195,-2.163492 -1.55612,-1.989807 -0.25504,0.06669 -0.60172,-0.04504 -0.77041,-0.248301 -0.60539,-0.729458 -3.67814,-0.274605 -4.41877,0.654103 -0.41998,0.526627 -0.40601,5.815065 0.0167,6.33412 0.32738,0.401968 1.82487,0.222938 3.49867,-0.41828 z m 56.22681,7.483723 c -0.54223,-0.653341 -0.10697,-1.648616 0.85692,-1.959451 0.47301,-0.152537 2.94361,-0.634442 5.49022,-1.070901 11.23025,-1.924727 14.23804,-2.455227 19.81303,-3.494534 6.38929,-1.191115 6.77759,-1.179844 6.77759,0.19672 0,0.551315 -0.18247,0.848664 -0.66145,1.077854 -0.36381,0.17408 -3.87615,0.865 -7.80521,1.535383 -15.32538,2.614837 -18.08467,3.093251 -20.71707,3.591999 -3.26968,0.619487 -3.34002,0.621792 -3.75403,0.12293 z m -42.55465,-1.541843 c -0.56142,-0.597607 -0.57529,-0.785053 -0.57529,-7.7769 0,-5.758601 -0.0699,-7.191343 -0.35598,-7.30114 -0.19579,-0.07513 -1.0229,0.04903 -1.83804,0.275907 -1.3623,0.37918 -1.5363,0.376971 -2.15336,-0.02734 -0.92386,-0.605342 -1.15713,-1.660818 -0.51006,-2.307894 0.80578,-0.805778 11.01076,-2.818243 12.6918,-2.502879 0.77452,0.145299 0.89689,0.272913 0.89689,0.935265 0,1.204648 -0.96567,2.079602 -2.63653,2.388849 -0.79526,0.147188 -1.55735,0.379045 -1.69354,0.515236 -0.13857,0.138579 -0.27443,3.428349 -0.3085,7.470548 -0.0727,8.620582 -0.006,7.766835 -0.65309,8.413548 -0.73698,0.736973 -2.13185,0.696455 -2.8643,-0.0832 z m 80.18877,-1.002289 c -0.1819,-0.188794 -0.33073,-0.602528 -0.33073,-0.919409 0,-0.768085 0.3668,-1.022273 2.24896,-1.558507 4.53127,-1.290979 7.3289,-4.021693 9.44332,-9.217427 0.42329,-1.040119 0.9607,-2.102281 1.19425,-2.360355 0.54757,-0.60506 1.39289,-0.608735 1.42778,-0.0062 0.28933,4.997548 -3.45677,10.922269 -8.32944,13.17358 -2.27756,1.052295 -5.073,1.49149 -5.65414,0.888328 z m -70.26029,-0.708335 c -0.35338,-0.39048 -0.43946,-1.316876 -0.50403,-5.424262 -0.0428,-2.724346 0.003,-4.95322 0.10168,-4.953053 0.0988,1.67e-4 0.36664,-0.186793 0.59531,-0.41547 0.32256,-0.322556 0.41719,-1.019574 0.42209,-3.108854 0.006,-2.507056 0.26555,-4.508351 0.63261,-4.875413 0.29575,-0.295744 6.64024,-1.367912 8.15847,-1.378715 1.44155,-0.01027 1.52135,0.0232 1.52135,0.638183 0,1.774682 -0.73916,2.277803 -4.10104,2.791441 -1.01864,0.155631 -2.0486,0.342432 -2.2888,0.415113 -0.5761,0.174326 -0.80007,1.14635 -0.50288,2.182567 0.14507,0.505851 0.14274,0.893489 -0.006,0.985374 -0.1348,0.08331 -0.24509,0.561168 -0.24509,1.061902 0,1.087602 0.26171,1.128181 3.22384,0.49988 1.06454,-0.2258 2.32248,-0.339468 2.79543,-0.252595 0.73153,0.134374 0.85989,0.270275 0.85989,0.910402 0,1.422239 -0.6863,1.871679 -3.69965,2.422785 -1.5153,0.277129 -2.8674,0.616172 -3.00465,0.753424 -0.13725,0.13725 -0.30501,0.826723 -0.37279,1.53216 -0.18081,1.881698 0.16555,2.078376 2.72719,1.548619 2.68573,-0.555423 3.44543,-0.529555 4.1151,0.140119 0.43891,0.438909 0.52597,0.762248 0.40535,1.505537 -0.255,1.571336 -0.7394,1.825413 -5.13745,2.69468 -4.70436,0.92981 -5.12777,0.954056 -5.696,0.326176 z m -95.46757,-2.108782 c -0.41073,-1.052126 -0.0753,-4.397279 0.71408,-7.121249 0.86696,-2.9917 2.62183,-5.923431 4.98813,-8.333322 3.51341,-3.578116 6.5881,-5.035089 13.64493,-6.465763 5.04338,-1.022474 6.22461,-1.115176 5.97667,-0.469037 -0.0909,0.237019 -0.29693,0.953418 -0.45773,1.591998 -0.1608,0.638582 -0.38962,1.221168 -0.5085,1.294638 -0.11887,0.07347 -2.0984,0.497382 -4.39895,0.942033 -4.6645,0.901551 -7.18672,1.773708 -9.42397,3.258706 -2.74642,1.822971 -5.67536,5.520967 -7.14268,9.018142 -0.48387,1.153229 -1.24187,3.967591 -1.24423,4.619651 -8e-4,0.224087 -0.12547,0.853917 -0.27702,1.39962 -0.22368,0.805428 -0.39894,0.992187 -0.93111,0.992187 -0.46993,0 -0.73601,-0.206049 -0.93962,-0.727604 z m 114.27317,-0.79375 c -0.63121,-0.719902 -1.17807,-1.916856 -2.42549,-5.308809 -0.63397,-1.723874 -1.3038,-3.416696 -1.48851,-3.761827 -0.24609,-0.459816 -0.25499,-0.654455 -0.0333,-0.728347 0.4815,-0.160502 0.35906,-1.130925 -0.49123,-3.893204 -0.43656,-1.418243 -0.79375,-2.854885 -0.79375,-3.192536 0,-0.6648 0.88737,-1.437672 1.65065,-1.437672 0.53763,0 0.68309,0.289169 2.59537,5.159375 1.68947,4.302784 2.5934,5.998403 3.14379,5.897208 0.22847,-0.04201 0.95118,-1.16771 1.60603,-2.501564 0.65484,-1.333855 1.32764,-2.584011 1.4951,-2.778125 0.16746,-0.194114 0.6756,-1.305436 1.1292,-2.469602 0.45359,-1.164167 1.20954,-2.831042 1.67989,-3.704167 l 0.85518,-1.5875 1.52136,-0.07935 c 0.83674,-0.04364 1.52135,-0.0016 1.52135,0.09369 0,0.09517 -0.78343,1.916816 -1.74095,4.048098 -0.95753,2.131285 -2.63047,6.256311 -3.71765,9.166727 -2.06136,5.518317 -2.44126,6.315064 -3.37187,7.07172 -0.75369,0.612804 -2.59997,0.616267 -3.13516,0.0059 z m 14.165,-2.126101 c -0.682,-0.433655 -0.87645,-1.829528 -0.87645,-6.291644 0,-3.957322 0.0573,-4.612983 0.40342,-4.612983 0.68343,0 0.9195,-1.21878 0.9195,-4.747326 0,-2.390574 0.0975,-3.470119 0.33072,-3.661852 0.45982,-0.37801 8.34335,-1.909572 9.8293,-1.909572 1.16316,0 1.21705,0.03357 1.21705,0.758068 0,1.669833 -1.13495,2.335708 -5.02708,2.949387 -3.02773,0.477391 -3.11067,0.567868 -3.13754,3.42274 -0.026,2.76665 -0.1697,2.665021 2.7904,1.974133 0.99129,-0.23137 2.36308,-0.510482 3.04841,-0.620252 l 1.24606,-0.199578 -0.1539,1.215562 c -0.22659,1.789814 -0.66118,2.095696 -3.77104,2.654268 -1.49394,0.26833 -2.84552,0.617138 -3.00351,0.775126 -0.38849,0.388493 -0.40246,2.841995 -0.0184,3.226535 0.23421,0.234477 0.93227,0.174461 2.91942,-0.250997 3.32181,-0.711218 3.91501,-0.707352 4.43069,0.02888 0.71025,1.014036 0.35795,3.141726 -0.57979,3.501572 -0.44454,0.170585 -9.62312,1.997959 -10.00424,1.991754 -0.13688,-0.0021 -0.39026,-0.09395 -0.56306,-0.203821 z m 14.33708,-2.801086 c -0.48945,-0.357661 -0.53909,-0.775533 -0.66145,-5.56845 -0.10447,-4.092005 -0.0614,-5.181684 0.20498,-5.181348 0.57594,7.94e-4 0.85335,-1.256202 0.85335,-3.866398 0,-2.606852 0.35743,-3.846632 1.20248,-4.170908 1.06474,-0.40858 1.77907,-0.134416 3.24893,1.24696 2.2434,2.108351 4.7528,4.15032 6.53146,5.314836 0.87166,0.570685 1.90744,1.255295 2.30173,1.521354 0.39429,0.26606 0.78124,0.483746 0.85989,0.483746 0.0787,0 0.14301,-0.745672 0.14301,-1.657051 0,-1.464649 0.0691,-1.687377 0.59531,-1.918229 0.51356,-0.225311 0.60075,-0.476721 0.63489,-1.830665 0.0218,-0.863219 0.12161,-2.444964 0.22187,-3.51499 0.15376,-1.640797 0.27984,-2.009407 0.80503,-2.353524 0.82021,-0.537419 1.81514,-0.385024 1.92102,0.294251 0.0454,0.291042 0.2003,0.768599 0.3443,1.061239 0.16936,0.344196 0.1879,3.364809 0.0525,8.55459 l -0.20931,8.02252 -0.86407,0.77197 c -1.4335,1.28071 -2.16791,1.092885 -4.52412,-1.157026 -1.11108,-1.06095 -3.60789,-3.4422 -5.54846,-5.291666 -1.94058,-1.849469 -3.74781,-3.362669 -4.01607,-3.362669 -0.45613,0 -0.49326,0.367596 -0.57272,5.66988 -0.079,5.272916 -0.12386,5.722131 -0.64042,6.416146 -0.64897,0.871903 -2.05294,1.12281 -2.88414,0.515432 z m 26.5364,-4.449093 c -0.87048,-0.669893 -0.96761,-1.634476 -0.82414,-8.184845 0.16766,-7.654954 0.16906,-7.649826 -1.93252,-7.111209 -1.13084,0.289825 -1.42334,0.277649 -2.13185,-0.08874 l -0.82118,-0.424648 0.54933,-1.194072 c 0.60928,-1.324399 0.98092,-1.512322 3.89167,-1.967857 0.94589,-0.148035 3.08901,-0.51289 4.7625,-0.810795 4.27605,-0.761193 5.35074,-0.223054 3.99491,2.000406 -0.49214,0.807072 -1.9916,1.427308 -3.45061,1.427308 -0.29937,0 -0.56781,0.02977 -0.59655,0.06615 -0.0287,0.03638 -0.11803,3.486129 -0.19844,7.666106 -0.13745,7.1457 -0.17787,7.631612 -0.67627,8.129508 -0.69313,0.692427 -1.98507,0.940408 -2.56685,0.492688 z M 169.3911,-71.186455 c 27.55269,-52.619045 33.43971,-31.165395 43.09734,-10.618927 1.6651,3.504234 1.68126,3.55973 1.10736,3.804033 -0.58675,0.249775 -9.17848,1.804509 -20.42614,3.696253 -5.90325,0.99287 -15.47379,2.669254 -20.92809,3.665786 -1.46951,0.268486 -2.80365,0.569629 -2.96477,0.669203 -0.18572,0.114781 -0.14389,-0.330409 0.1143,-1.216348 z m 31.0579,-7.748844 c 10.09611,-1.823169 9.5217,-1.696093 9.5217,-2.10653 0,-0.502195 -1.55905,-3.756742 -1.95839,-4.088159 -0.38614,-0.320477 -14.83017,2.074661 -16.73941,2.775762 -1.32169,0.485344 -1.93969,1.334886 -1.93969,2.666415 0,1.332452 0.83337,2.209173 2.09994,2.209173 0.52215,0 4.57928,-0.655497 9.01585,-1.456661 z m 113.56714,2.751545 c -0.72652,-0.268756 -0.96821,-1.208418 -0.77996,-3.032374 0.30201,-2.926238 -0.88088,-4.719227 -3.78215,-5.732832 l -1.71979,-0.60084 -0.0785,-1.203888 c -0.10136,-1.554179 0.56257,-2.238881 2.15681,-2.224284 3.2335,0.02961 6.826,3.933227 7.23099,7.85721 0.20013,1.939062 -0.0571,3.189512 -0.85002,4.131823 -0.74324,0.88329 -1.35484,1.109458 -2.17737,0.805185 z m -93.94743,-5.462071 c -18.27106,-34.231635 46.1036,-44.567815 26.18148,-2.124345 -0.0962,0.104918 -2.61325,0.609142 -5.59337,1.120497 -2.98012,0.511355 -8.4545,1.465098 -12.16528,2.119429 -3.71078,0.65433 -6.82722,1.191905 -6.92543,1.194607 -0.0982,0.0027 -0.77203,-1.036881 -1.4974,-2.310188 z m 8.64284,-2.318533 c 12.62801,-2.255473 15.51414,-2.812593 15.80015,-3.049966 9.12839,-13.695446 -33.11262,2.083876 -21.40335,3.979436 0.21959,0 2.74102,-0.418261 5.6032,-0.92947 z m 25.17999,-1.337165 c 1.36248,-3.208335 7.58766,-11.745672 12.26873,-12.020864 0.2177,0 1.20746,0.653338 2.19947,1.451859 0.99202,0.798523 1.92273,1.452922 2.06825,1.454221 0.14552,0.0013 0.6478,-0.231296 1.11617,-0.516874 l 0.85158,-0.519232 1.52966,1.858751 c 1.93528,2.351611 3.0222,3.964522 2.90619,4.312552 -0.0497,0.149193 -1.98714,0.607679 -4.30534,1.018855 -10.18984,1.807355 -17.48885,3.121697 -18.0394,3.248382 -0.42698,0.09825 -0.59531,0.01691 -0.59531,-0.28765 z m 67.37899,-1.734277 c -2.1277,-4.571913 -8.55602,-8.103645 -13.66858,-7.509555 -1.22986,0.142912 -20.94192,3.601357 -22.66891,3.977219 -0.45865,0.09982 -0.82131,-0.196892 -1.77764,-1.454377 l -1.20143,-1.579782 0.98388,-0.258686 c 0.54114,-0.14228 3.12701,-0.631928 5.74639,-1.088112 2.61937,-0.456182 7.02468,-1.248831 9.78958,-1.76144 6.26061,-1.160711 10.11139,-1.387432 12.92673,-0.761079 4.64633,1.033711 8.59437,4.101002 10.70416,8.316224 1.27585,2.549081 1.43926,3.740785 0.51234,3.736496 -0.46922,-0.0021 -0.75443,-0.344651 -1.34652,-1.616908 z"
         id="path13288"
         sodipodi:nodetypes="sssssssssscscssscscssssscssssssssssssssssssssssssssssscssssssssssssssssssssssssssssssssssssssssscsssssssssssscsssssssssssssssssssssssssssssssssssssssssssssssssssssssssssssssssssssssssssssssssssssssssscsssssssssssssssssssssssssssssssssssssssssssssssssssssssssssssssssssssssssssssssssssssssssssssssssssssssssssssssssssssssssssssssssssssssssscsssssssssssssssssscssssssscsssscsssssssssssssscsssssssssssscsssssssssccsssscsssssssssscssssssccsssscsccsccssscsssscsssscssssscs"
         inkscape:export-filename="path13288.svg"
         inkscape:export-xdpi="16.479124"
         inkscape:export-ydpi="16.479124" /><path
         style="fill:#bf390c;stroke-width:0.264583"
         d="m 219.4957,2.5268795 c -5.1688,-0.614 -13.76686,-2.73651999 -13.75207,-3.39483999 0.003,-0.15312001 0.49195,-0.63558001 1.08558,-1.07214001 0.59364,-0.43656 2.12363,-1.88389 3.39999,-3.21628 3.86756,-4.03735 6.66047,-8.7604495 8.50242,-14.3785095 0.54868,-1.67349 1.00459,-2.85929 1.01313,-2.63511 0.0303,0.79637 -1.61385,5.45003 -2.76861,7.83613 -1.40206,2.89711 -3.69999,6.3585095 -5.38452,8.1107895 -1.19029,1.23816 -1.20945,1.28407 -0.69487,1.66513 1.36378,1.00994 1.65959,0.88041 4.21474,-1.84565 l 2.39984,-2.56037 8.06979,-1.4287095 c 4.43839,-0.78579 10.51057,-1.85609 13.49375,-2.37844 2.98318,-0.52235 8.54073,-1.55929 12.35011,-2.30431 l 6.92614,-1.35458 1.00549,0.82881 c 0.55302,0.45584 1.18672,0.82826 1.40823,0.82758 0.43755,-0.001 2.12253,-1.46698 2.12253,-1.84625 0,-0.12823 -0.38695,-0.50216 -0.8599,-0.83095 -2.98448,-2.0748 -7.90409,-7.39911 -10.66791,-11.54548 -1.69286,-2.53967 -2.07213,-2.960796 -2.57117,-2.85496 -2.54569,0.53989 -4.83573,0.935818 -5.31005,0.918067 -0.50198,-0.01879 5.05682,-1.246521 5.82265,-1.28601 0.16734,-0.0086 0.92766,0.966578 1.68961,2.167125 3.86979,6.097328 7.78326,9.996568 16.06396,16.005538 0.47294,0.3432 0.85989,0.7367 0.85989,0.87445 0,0.37954 -3.96041,3.4453795 -7.67291,5.9397795 -6.90146,4.63703 -15.16088,7.76748001 -24.47396,9.27602 -2.53703,0.41095 -14.01156,0.75167 -16.27188,0.48317 z m -24.43878,-7.65547 c -3.56382,-1.83023 -8.59521,-5.8220695 -12.48873,-9.9083795 -3.95303,-4.14878 -4.1757,-4.58305 -2.56155,-4.99584 2.14807,-0.54933 24.37047,-4.32113 24.7377,-4.19872 0.15863,0.0529 -1.96406,0.48078 -4.71709,0.95089 -14.27538,2.4377 -20.37418,3.5492 -20.58557,3.7517 -0.13347,0.12787 0.14215,0.69961 0.64075,1.32914 0.84279,1.06411 0.91955,1.09978 2.08632,0.96969 1.58212,-0.1764 13.88977,-2.28644 20.12904,-3.45095 6.87503,-1.28318 7.67291,-1.36642 7.67291,-0.8005 0,0.24905 -0.47498,1.43412 -1.05551,2.6335 -0.8958,1.85073 -1.18605,2.2222 -1.91823,2.45507 -0.93779,0.29827 -6.12926,1.30868 -14.96224,2.91208 -3.09807,0.56237 -5.71744,1.10967 -5.82083,1.21622 -0.43204,0.44525 5.93025,5.3157695 8.86423,6.7858295 1.37301,0.68794 1.83105,0.79558 2.77993,0.65329 4.40084,-0.65995 10.27983,-6.1424295 13.04323,-12.1635295 1.51961,-3.31105 3.00638,-8.63121 2.41207,-8.63121 -0.0533,0 -1.67657,0.29766 -3.60723,0.66146 -1.93066,0.3638 -3.76227,0.64765 -4.07025,0.63077 -0.53101,-0.0291 -0.53261,-0.0367 -0.0308,-0.14782 1.50951,-0.33413 7.38556,-1.40899 7.70263,-1.40899 0.99972,0 -0.23703,4.87362 -2.38354,9.39271 -1.24549,2.62215 -3.69134,6.03267 -5.56471,7.7594895 -1.62409,1.49702 -4.49525,3.32515 -6.04748,3.85053 -1.73613,0.58764 -2.7447,0.52923 -4.25506,-0.24643 z M 144.5653,-10.58964 c -6.35887,-0.58262 -10.69941,-3.65424 -13.42825,-9.50261 -1.28012,-2.7435 -2.03271,-7.11556 -1.22485,-7.11556 0.20615,0 0.42486,-0.14883 0.48601,-0.33073 0.0611,-0.1819 0.26097,0.32412 0.44403,1.12448 0.99729,4.3603 4.3226,8.71078 7.97488,10.43349 4.4606,2.10398 6.99213,2.21203 15.91428,0.67922 11.70623,-2.0111 15.34452,-2.65034 15.95073,-2.80249 0.50508,-0.12677 0.79679,0.0965 1.71523,1.31299 0.60865,0.80615 1.03717,1.57813 0.95227,1.71551 -0.22985,0.3719 -5.42167,1.44702 -14.31121,2.96358 -2.47386,0.42204 -5.50995,0.94116 -6.74688,1.1536 -2.87513,0.4938 -5.16626,0.60308 -7.72624,0.36852 z m 77.17254,-8.42712 c -0.0878,-0.14205 -0.10011,-0.46558 -0.0274,-0.71894 1.25187,-4.36019 1.20029,-4.24832 2.09036,-4.53345 0.46984,-0.15051 3.65222,-0.75191 7.07195,-1.33645 3.41974,-0.58455 8.71581,-1.49435 11.76904,-2.02179 l 5.55133,-0.95899 1.14173,1.2846 c 1.84629,2.07731 2.52548,3.00709 2.33544,3.19713 -0.1707,0.1707 -6.93074,1.42727 -15.37358,2.85767 -2.18281,0.36981 -5.99281,1.02759 -8.46666,1.46172 -2.47386,0.43412 -4.82072,0.84275 -5.21527,0.90805 -0.39453,0.0653 -0.78917,0.002 -0.87697,-0.13955 z m 48.55786,-0.86446 c -5.2164,-2.59608 -8.98431,-5.88973 -12.1558,-10.62578 -1.67751,-2.505067 -1.74854,-2.743808 -0.91114,-3.062189 0.37472,-0.142465 4.94994,-0.965044 10.16718,-1.827953 5.21723,-0.86291 11.22533,-1.8908 13.35133,-2.284201 2.70468,-0.500481 3.94905,-0.631677 4.14383,-0.436893 1.31003,1.310028 -9.66896,19.403166 -11.75179,19.366676 -0.32706,-0.006 -1.60668,-0.51408 -2.84361,-1.12966 z m 3.72152,0.28018 c 0.94536,-0.99232 1.40083,-1.79808 1.14645,-2.02813 -0.13077,-0.11826 -0.83308,-0.35823 -1.56068,-0.53325 -2.51225,-0.60432 -6.79748,-3.29591 -9.82319,-6.17004 -1.8985,-1.803388 -2.24483,-2.366543 -1.67281,-2.720071 0.15288,-0.09448 3.69499,-0.756682 7.87135,-1.471551 4.17637,-0.71487 9.02104,-1.567329 10.76594,-1.894348 l 3.17254,-0.594585 0.50152,-1.397119 c 0.27584,-0.768416 0.42782,-1.470824 0.33774,-1.560904 -0.0901,-0.09008 -1.56482,0.100978 -3.27719,0.424574 -1.71237,0.323596 -7.69731,1.35537 -13.29986,2.292832 -11.04241,1.847699 -11.11249,1.862063 -11.11249,2.277736 0,0.892181 3.6979,5.766956 5.87088,7.739296 0.91836,0.83357 2.62224,2.15055 3.78641,2.92663 2.1192,1.41273 5.78194,3.30425 6.39837,3.30425 0.18033,0 0.58309,-0.26789 0.89502,-0.59532 z m -129.22649,0.33018 c -3.91065,-0.69398 -7.92036,-4.55497 -8.51742,-8.20153 -0.12256,-0.74853 -0.0592,-0.67179 0.3308,0.40033 1.52312,4.18766 4.619,6.87688 8.67718,7.53736 3.23764,0.52694 5.42275,-0.53217 5.42275,-2.62838 0,-0.55615 0.16302,-1.14648 0.36226,-1.31183 0.37282,-0.30941 8.25006,-1.69997 8.72783,-1.54071 0.14685,0.0489 -1.67669,0.4126 -4.0523,0.80813 -2.37562,0.39552 -4.42143,0.78225 -4.54625,0.8594 -0.12483,0.0771 -0.22696,0.5422 -0.22696,1.03347 0,1.37197 -0.40079,2.12935 -1.37026,2.5894 -1.15242,0.54686 -3.19733,0.74012 -4.80763,0.45436 z m 75.0223,-3.83591 c 0,-0.29104 0.0953,-0.82682 0.21184,-1.19062 0.16774,-0.52376 0.21184,-0.5513 0.21184,-0.13229 0,0.29104 -0.0953,0.82682 -0.21184,1.19062 -0.16774,0.52377 -0.21184,0.55131 -0.21184,0.13229 z m -76.9142,-2.13587 c -2.20263,-1.14557 -3.09333,-2.92741 -3.29419,-6.590052 -0.13884,-2.53166 -0.17339,-2.65512 -0.7666,-2.739099 -0.70801,-0.100229 -1.80017,0.788146 -2.2224,1.807734 -0.15066,0.363802 -0.35869,1.494896 -0.46229,2.513542 -0.18722,1.840705 -0.18861,1.843335 -0.22717,0.427572 -0.0724,-2.657391 1.1999,-5.05778 2.68079,-5.05778 1.07701,0 1.32987,0.601808 1.3666,3.252528 0.0269,1.938115 0.15032,2.657445 0.60403,3.519395 0.65497,1.2443 2.18944,2.68709 3.05369,2.87124 0.32475,0.0692 0.82858,0.17617 1.11963,0.23772 0.34228,0.0724 0.24883,0.12216 -0.26459,0.14096 -0.43656,0.016 -1.15093,-0.15671 -1.5875,-0.38376 z m 3.11389,-0.0319 c 0.25743,-0.0671 0.61462,-0.0627 0.79375,0.01 0.17913,0.0725 -0.0315,0.12736 -0.46805,0.12197 -0.43657,-0.005 -0.58313,-0.0647 -0.3257,-0.13177 z m 74.41488,-0.60213 c 0.075,-0.50478 0.24988,-1.0313 0.38862,-1.17004 0.25576,-0.25575 8.42226,-1.74372 9.39511,-1.71182 0.29104,0.01 -1.56518,0.4031 -4.12494,0.87458 -2.55975,0.47147 -4.79029,0.94139 -4.95674,1.04427 -0.16646,0.10287 -0.42319,0.56813 -0.57053,1.03391 l -0.26787,0.84687 z m -72.2371,0.24151 c 4.67905,-0.98464 14.36608,-2.50836 14.58094,-2.29349 0.0755,0.0755 -0.49539,0.21716 -1.26869,0.31475 -0.7733,0.0976 -4.11872,0.64559 -7.43427,1.21778 -5.36051,0.9251 -8.73229,1.36162 -5.87798,0.76096 z m 15.14739,-2.54168 c 0.1819,-0.0734 0.47956,-0.0734 0.66146,0 0.1819,0.0734 0.0331,0.13346 -0.33073,0.13346 -0.3638,0 -0.51263,-0.0601 -0.33073,-0.13346 z m 1.46025,-0.2727 c 0.25743,-0.0671 0.61462,-0.0627 0.79375,0.01 0.17913,0.0725 -0.0315,0.12736 -0.46806,0.12197 -0.43656,-0.005 -0.58312,-0.0647 -0.32569,-0.13177 z m 2.70694,-0.49368 c 0.87313,-0.197016 1.82563,-0.351207 2.11667,-0.342645 0.29104,0.0086 -0.18521,0.176765 -1.05834,0.373785 -0.87312,0.19702 -1.82562,0.35121 -2.11666,0.34265 -0.29104,-0.009 0.18521,-0.17676 1.05833,-0.37379 z m 63.5,-7.9e-4 c 0.51007,-0.206204 10.79455,-1.967678 11.3475,-1.943548 0.66154,0.02887 -10.31058,2.064518 -11.08292,2.056198 -0.29104,-0.003 -0.4101,-0.0538 -0.26458,-0.11265 z m -58.34062,-0.916282 c 1.38244,-0.266176 2.75166,-0.478684 3.0427,-0.472242 0.29105,0.0064 -0.54239,0.231416 -1.85208,0.499941 -1.30969,0.268528 -2.67891,0.481037 -3.04271,0.472244 -0.3638,-0.0088 0.46964,-0.23377 1.85209,-0.499943 z m 3.9026,-0.697743 c 0.1819,-0.0734 0.47956,-0.0734 0.66146,0 0.1819,0.0734 0.0331,0.133453 -0.33073,0.133453 -0.3638,0 -0.51263,-0.06006 -0.33073,-0.133453 z m -33.97812,-0.46078 c -0.97693,-0.441576 -1.42084,-1.144889 -1.38282,-2.190869 0.026,-0.714266 0.0358,-0.70821 0.23769,0.146804 0.37227,1.576311 1.0836,2.025698 3.11803,1.969823 2.19429,-0.06027 6.28191,-0.9315 7.64178,-1.628767 1.22574,-0.628491 1.94532,-1.37577 2.84319,-2.952649 0.37287,-0.654844 0.67893,-1.071563 0.68014,-0.926042 0.003,0.39996 -1.01855,2.020559 -1.80874,2.868501 -1.01257,1.086583 -2.41703,1.727272 -5.02188,2.290898 -3.43649,0.743574 -5.31793,0.869542 -6.30739,0.422301 z m 36.02864,0.09275 c 0.58208,-0.1221 4.83246,-0.900951 9.44528,-1.73078 8.01345,-1.441585 8.41702,-1.48908 9.06198,-1.06648 0.65647,0.430136 0.93569,1.560685 0.45832,1.855716 -0.11919,0.07366 -0.1657,-0.213587 -0.10336,-0.638336 0.0917,-0.624975 -0.0133,-0.829974 -0.55073,-1.074838 -0.5405,-0.246271 -1.64131,-0.120663 -5.9159,0.675024 -7.2014,1.34049 -12.5818,2.258369 -13.05705,2.227484 -0.21828,-0.01418 0.0794,-0.12569 0.66146,-0.24779 z m 25.16372,-0.669007 c -0.0883,-0.230182 -0.16242,-1.33151 -0.16465,-2.447396 -0.005,-2.292411 -0.12265,-2.598923 -1.05157,-2.729809 -0.73828,-0.104024 -1.05702,-0.955617 -0.49176,-1.313836 0.19622,-0.124349 0.65442,-0.213826 1.01822,-0.198837 0.59736,0.02461 0.58485,0.04364 -0.12906,0.196424 -1.14818,0.245713 -1.20703,1.031621 -0.0853,1.13933 l 0.87584,0.0841 0.13229,2.624706 c 0.0867,1.720188 0.2429,2.661258 0.45326,2.730775 0.42863,0.141645 0.59147,-0.67582 0.67101,-3.368368 0.0639,-2.161839 0.0937,-2.25929 0.79396,-2.594126 0.99007,-0.473405 0.92609,-1.052142 -0.13229,-1.196694 l -0.8599,-0.117443 0.92604,0.03453 c 0.74944,0.02795 0.94234,0.149402 1.01151,0.636873 0.0666,0.469609 -0.0937,0.6648 -0.7276,0.88578 l -0.81308,0.283438 v 2.567035 c 0,2.519217 -0.20272,3.202032 -0.95065,3.202032 -0.1736,0 -0.38792,-0.18833 -0.47625,-0.418514 z m 7.67213,-1.124463 c -0.0848,-0.137147 0.0456,-0.233038 0.28968,-0.213088 0.30715,0.02511 0.5195,-0.275458 0.68968,-0.976138 0.32871,-1.353465 0.8313,-1.482055 1.86743,-0.477795 0.9493,0.920099 1.66684,1.113801 1.35479,0.365728 -0.70655,-1.693785 -0.71803,-1.799309 -0.32272,-2.967675 0.46269,-1.367509 0.28023,-2.118831 -0.62669,-2.580528 -0.79167,-0.403027 -2.6312,-0.161428 -3.08125,0.404682 -0.1819,0.228807 -0.33073,0.288775 -0.33073,0.133258 0,-0.502891 0.63165,-0.813456 2.03927,-1.002662 1.25044,-0.168077 1.43999,-0.123011 2.05052,0.487515 0.76175,0.761752 0.88236,1.905948 0.28425,2.696716 -0.50897,0.67292 -0.50273,1.309542 0.0207,2.108356 0.8589,1.310851 -0.45033,2.062167 -1.39608,0.801161 -0.7536,-1.004785 -1.17282,-0.9363 -1.51688,0.247803 -0.29241,1.006335 -0.98582,1.516536 -1.32195,0.972667 z m -51.93656,-0.889723 c -0.31893,-0.154122 -0.64575,-0.451887 -0.72626,-0.661701 -0.0955,-0.248928 0.0954,-0.191307 0.54941,0.165835 0.82613,0.649838 1.19477,0.676439 2.19639,0.15848 0.95538,-0.494043 1.33846,-1.596424 1.33846,-3.851582 0,-1.109728 0.12457,-1.877689 0.33073,-2.03904 0.1819,-0.142362 1.46182,-0.516221 2.84427,-0.8308 2.86123,-0.651078 4.8517,-1.675524 6.08477,-3.131669 0.46707,-0.551574 0.72238,-0.7513 0.56734,-0.443835 -0.38783,0.769138 -1.95401,2.106218 -3.229,2.756669 -0.58305,0.29745 -2.21685,0.810467 -3.63066,1.140037 l -2.57057,0.599215 -0.13417,2.395056 c -0.14245,2.542953 -0.35509,3.026158 -1.61936,3.679941 -0.84906,0.439063 -1.20089,0.450207 -2.00135,0.06339 z m 51.60112,-1.800632 c 0,-1.091406 0.0467,-1.537891 0.10379,-0.992188 0.0571,0.545704 0.0571,1.438672 0,1.984375 -0.0571,0.545703 -0.10379,0.09922 -0.10379,-0.992187 z m -69.67437,1.064432 c 0,-0.387586 1.25609,-1.134219 1.64517,-0.977903 0.21274,0.08547 0.16658,0.144066 -0.12381,0.157165 -0.25466,0.01148 -0.70115,0.259014 -0.99219,0.550056 -0.29104,0.291042 -0.52917,0.412848 -0.52917,0.270682 z m 79.07907,-0.07225 c -0.0666,-0.702908 0.0896,-1.22374 1.27731,-4.259156 0.67463,-1.72407 1.38908,-3.197027 1.58767,-3.273234 0.79982,-0.30692 1.73213,1.118102 3.26428,4.989422 0.41554,1.04993 0.4337,1.298527 0.12566,1.719791 -0.34781,0.475647 -0.38171,0.472136 -0.99378,-0.102864 -1.07737,-1.012124 -3.23004,-0.66938 -3.92252,0.624538 -0.35424,0.661919 -1.2846,0.871463 -1.33862,0.301503 z m 1.08034,-0.577863 c 0.35738,-0.667761 1.1289,-1.060569 2.56728,-1.307084 0.60515,-0.103714 1.03196,0.0088 1.53529,0.40472 0.38343,0.301601 0.76948,0.47603 0.85789,0.387617 0.45298,-0.45298 -2.16966,-6.117285 -2.83237,-6.117285 -0.21714,0 -0.62043,0.47625 -0.89621,1.058333 -0.6057,1.278427 -2.01629,5.38539 -2.01629,5.870466 0,0.556803 0.41077,0.401397 0.78441,-0.296767 z m 1.69845,-2.647828 c -0.23831,-0.621025 0.004,-1.325938 0.48729,-1.419058 0.59556,-0.114694 0.97196,1.222777 0.4391,1.560242 -0.52253,0.330925 -0.75906,0.294878 -0.92639,-0.141184 z m -64.90363,2.343748 c 0.0127,-0.308227 0.0754,-0.37092 0.15985,-0.159853 0.0764,0.190994 0.067,0.4192 -0.0209,0.507118 -0.0879,0.08792 -0.15046,-0.06835 -0.13897,-0.347265 z m 73.45624,-1.069221 c -0.22841,-0.22841 -0.25201,-5.973514 -0.0269,-6.560007 0.25114,-0.654471 1.14346,-0.502545 1.4269,0.242943 0.13831,0.363802 0.35396,0.661458 0.47921,0.661458 0.12525,0 0.66323,-0.485124 1.19552,-1.078053 0.91124,-1.01506 1.72861,-1.280864 1.9445,-0.632335 0.0764,0.229507 -0.8381,1.780534 -1.89944,3.221521 -0.19821,0.269105 0.0554,0.658178 1.01085,1.550871 1.29485,1.209786 1.4119,1.582042 0.64881,2.063388 -0.3214,0.202734 -0.67707,0.09407 -1.45368,-0.444119 -1.31886,-0.913969 -1.53202,-0.896806 -1.83018,0.147372 -0.23637,0.827757 -1.04668,1.275821 -1.49554,0.826961 z m 1.08711,-1.108882 c 0.11624,-1.207302 0.64162,-1.300112 2.0764,-0.3668 1.08656,0.706798 1.9406,0.861677 1.9406,0.351923 0,-0.09572 -0.53578,-0.693278 -1.19062,-1.327902 -0.65485,-0.634627 -1.19063,-1.25767 -1.19063,-1.384543 0,-0.126873 0.41672,-0.810721 0.92604,-1.519661 0.87315,-1.215355 1.18499,-2.151824 0.71655,-2.151824 -0.11522,0 -0.73532,0.535781 -1.378,1.190625 -1.38225,1.408403 -1.85209,1.504161 -1.85209,0.377475 0,-0.631856 -0.10323,-0.793361 -0.46302,-0.724384 -0.40615,0.07786 -0.47216,0.489037 -0.53748,3.347694 -0.0686,3.004729 -0.0377,3.251959 0.39688,3.16961 0.31608,-0.05989 0.49901,-0.376833 0.55537,-0.962213 z m -20.14827,0.833136 c -0.23542,-0.235421 -0.21787,-1.469163 0.0261,-1.834459 0.6147,-0.92038 1.91419,-0.453361 1.91419,0.687932 0,0.981948 -1.32306,1.763752 -1.94028,1.146527 z m 1.40056,-0.472358 c 0.44748,-0.539179 0.23214,-1.335627 -0.36112,-1.335627 -0.61457,0 -1.09201,0.70676 -0.86937,1.286954 0.2057,0.536046 0.80629,0.559803 1.23049,0.04867 z m 28.12253,-0.975932 c -0.2285,-0.230224 -0.33073,-1.336365 -0.33073,-3.578304 0,-3.001473 0.0407,-3.266871 0.54281,-3.535571 0.29855,-0.159777 0.80457,-0.239713 1.12448,-0.177631 0.50474,0.09794 0.48972,0.117639 -0.11354,0.148905 -1.17189,0.06074 -1.31277,0.507945 -1.23167,3.910015 l 0.0748,3.137474 0.88923,-0.0422 c 1.88278,-0.08936 2.68265,-0.35646 2.68265,-0.895829 0,-0.435544 -0.18547,-0.517178 -1.17501,-0.517178 -0.64626,0 -1.24708,-0.116602 -1.33516,-0.259115 -0.27929,-0.451903 0.38801,-1.328385 1.01135,-1.328385 0.58453,0 1.23423,-0.437677 1.23423,-0.831453 0,-0.108051 -0.50601,-0.233066 -1.12448,-0.277813 -1.00136,-0.07245 -1.12448,-0.153783 -1.12448,-0.742817 0,-0.56156 0.1998,-0.724665 1.32292,-1.079963 0.98229,-0.310748 1.32292,-0.549191 1.32292,-0.926042 0,-0.41284 -0.17278,-0.498538 -0.92604,-0.459303 -0.91646,0.04773 -0.91783,0.04619 -0.1323,-0.149019 1.07053,-0.266028 1.45521,-0.09482 1.45521,0.647639 0,0.506042 -0.21041,0.682122 -1.12448,0.941004 -0.61846,0.175159 -1.28739,0.466169 -1.48651,0.646689 -0.50822,0.46074 -0.11529,0.951108 0.719,0.897313 1.19325,-0.07694 1.36283,-0.0071 1.36283,0.561301 0,0.396515 -0.29597,0.666707 -1.05834,0.966176 -1.36449,0.535985 -1.4576,1.263234 -0.13424,1.048483 1.7663,-0.286631 2.21749,1.422802 0.46717,1.769959 -2.12827,0.422121 -2.59827,0.442399 -2.91261,0.125665 z m -60.65744,-0.195514 c -1.06725,-0.347996 -2.25698,-1.020617 -2.65627,-1.501724 -0.20376,-0.24552 0.0891,-0.134499 0.65088,0.246713 1.46161,0.991873 2.87808,1.295577 5.46807,1.172406 1.78407,-0.08484 2.57746,-0.260012 3.70417,-0.817825 2.34331,-1.160123 4.67762,-3.724978 5.68772,-6.249471 0.2434,-0.608311 0.49872,-1.049848 0.56737,-0.981191 0.34017,0.340167 -1.77606,3.877598 -3.14916,5.264062 -2.17598,2.197145 -3.8924,2.926239 -7.09607,3.014234 -1.38245,0.03797 -2.81197,-0.02827 -3.17671,-0.147204 z m 22.44168,-0.212624 c 0.191,-0.07643 0.4192,-0.06703 0.50712,0.02088 0.0879,0.08792 -0.0684,0.150453 -0.34726,0.138965 -0.30823,-0.0127 -0.37092,-0.07539 -0.15986,-0.159851 z m 47.20608,-1.187371 c -0.22038,-0.220384 -0.32522,-1.328666 -0.32522,-3.437998 0,-3.541413 0.0133,-3.563374 2.32268,-3.833286 1.73281,-0.202522 2.7044,0.540914 2.7044,2.069338 0,0.585449 -0.1922,1.389832 -0.42713,1.78752 -0.3925,0.664461 -0.39266,0.789702 -0.002,1.54524 0.38543,0.745332 0.38654,0.860801 0.0119,1.235462 -0.46505,0.46506 -0.991,0.285003 -1.80956,-0.619493 -0.69375,-0.76658 -0.86055,-0.702109 -1.12988,0.436721 -0.24502,1.036085 -0.79301,1.368692 -1.3452,0.816496 z m 0.85161,-0.285535 c 0.056,-0.181901 0.17363,-0.658151 0.26132,-1.058334 0.20255,-0.924404 0.90541,-0.951171 1.73685,-0.06615 1.08109,1.150773 1.6946,0.708355 1.03257,-0.744628 -0.22671,-0.497581 -0.19772,-0.816343 0.13229,-1.454518 0.44724,-0.86487 0.54787,-2.089086 0.21477,-2.612948 -0.51496,-0.809871 -3.05674,-0.988449 -3.95932,-0.278169 -0.35283,0.277661 -0.49226,6.031163 -0.15434,6.369081 0.27881,0.278805 0.62477,0.206243 0.73586,-0.154339 z m 0.47681,-3.548666 c -0.47899,-0.193278 -0.40579,-0.996363 0.1538,-1.68743 0.37508,-0.463196 0.64404,-0.558332 1.19063,-0.421146 0.56915,0.142849 0.7061,0.331455 0.7061,0.972476 0,0.610206 -0.15793,0.855303 -0.67869,1.053293 -0.73232,0.278429 -0.8669,0.286552 -1.37184,0.08281 z m 1.6262,-0.774689 c 0.21365,-0.556755 -0.0242,-0.902166 -0.62132,-0.902166 -0.44569,0 -0.80644,0.483108 -0.80644,1.079974 0,0.42024 1.25841,0.263525 1.42776,-0.177808 z m -107.83986,4.473344 c 0.19099,-0.07643 0.4192,-0.06703 0.50712,0.02088 0.0879,0.08792 -0.0684,0.150453 -0.34727,0.138964 -0.30822,-0.0127 -0.37092,-0.07539 -0.15985,-0.15985 z m 51.92714,-1.31015 c -0.48825,-0.620707 -0.54293,-1.019564 -0.49878,-3.638021 l 0.0496,-2.94088 0.14885,3.069677 c 0.098,2.020636 0.27294,3.218695 0.51197,3.505729 0.55783,0.669853 2.0537,0.556821 2.8239,-0.213381 0.58672,-0.586717 0.64943,-0.864643 0.64943,-2.878019 0,-2.386705 0.12254,-2.644002 1.41351,-2.968016 0.68831,-0.172754 0.93504,0.0084 3.04123,2.233469 2.61022,2.757504 3.27729,2.993909 4.80966,1.704504 1.1021,-0.927351 0.94087,-1.797208 -0.66395,-3.582148 -0.65566,-0.729258 -1.19211,-1.445959 -1.19211,-1.592673 0,-0.146711 0.6515,-0.970446 1.44777,-1.830522 1.08677,-1.173832 1.57788,-1.974363 1.96952,-3.210361 0.28695,-0.905627 0.52842,-1.442699 0.53659,-1.193496 0.0364,1.109533 -1.10354,3.340237 -2.36552,4.628996 -0.72808,0.743535 -1.32272,1.452049 -1.32143,1.574477 0.001,0.122428 0.59661,0.916845 1.32292,1.765374 1.56847,1.832396 1.66695,2.551552 0.49883,3.642736 -0.60239,0.562721 -1.08486,0.767612 -1.80756,0.767612 -0.8923,0 -1.2158,-0.232193 -3.40978,-2.447396 l -2.42396,-2.447396 -0.72942,0.405673 c -0.68928,0.383346 -0.7367,0.531505 -0.86171,2.691936 -0.11296,1.952078 -0.22606,2.38588 -0.77373,2.967765 -0.90141,0.957718 -2.41604,0.950259 -3.17582,-0.01564 z m 64.01281,-2.606715 c -0.53195,-0.640969 -0.0923,-1.712954 0.86646,-2.112666 0.92902,-0.387307 7.8222,-1.590582 8.01388,-1.398902 0.0651,0.06513 -1.48568,0.379706 -3.44626,0.699048 -1.96057,0.319341 -3.92712,0.706969 -4.3701,0.861396 -0.90808,0.316555 -1.32051,1.323212 -0.79939,1.951124 0.17959,0.21639 0.26699,0.393438 0.19423,0.393438 -0.0728,0 -0.27923,-0.177048 -0.45882,-0.393438 z m -42.4805,-1.314328 -0.64943,-0.64943 v -7.140162 c 0,-3.927089 -0.0935,-7.197923 -0.20769,-7.268522 -0.11424,-0.0706 -0.89171,0.06202 -1.72772,0.294714 -1.45757,0.405694 -1.5489,0.401513 -2.22302,-0.10179 -0.38665,-0.288677 -0.75244,-0.673214 -0.81288,-0.854528 -0.0604,-0.181316 0.19453,-0.02524 0.5666,0.346827 0.78472,0.784725 0.97865,0.806365 2.66856,0.29778 0.6921,-0.208293 1.4254,-0.314616 1.62955,-0.236278 0.30594,0.117403 0.37118,1.408223 0.37118,7.34405 0,7.185665 0.001,7.202889 0.61237,7.776903 1.07298,1.008012 2.67461,0.71724 3.24316,-0.588791 0.29628,-0.680611 0.35886,-0.722193 0.36745,-0.244189 0.027,1.500158 -2.6481,2.213448 -3.83813,1.023416 z m -46.4921,-0.940911 c 0.22927,-0.58365 0.46479,-1.013238 0.52338,-0.954641 0.12741,0.12741 -0.63675,2.015818 -0.81571,2.015818 -0.0685,0 0.0631,-0.47753 0.29233,-1.061177 z m 126.70261,-0.07498 c -0.32891,-0.240507 -0.44238,-0.614527 -0.38129,-1.256771 0.0857,-0.900869 0.1225,-0.926148 2.49474,-1.712878 1.32428,-0.439185 2.8904,-1.117907 3.48029,-1.508273 2.35814,-1.560545 4.5389,-4.431954 5.60865,-7.384918 1.00872,-2.784477 2.1307,-3.907991 3.09963,-3.10385 0.33133,0.274978 0.38213,0.668922 0.25018,1.940089 -0.44899,4.325619 -3.12012,8.769156 -6.69961,11.145082 -2.75151,1.826353 -6.65043,2.760552 -7.85259,1.881519 z m 5.82284,-1.102241 c 4.87267,-2.251311 8.61877,-8.176032 8.32944,-13.17358 -0.0349,-0.602525 -0.88021,-0.59885 -1.42778,0.0062 -0.23355,0.258074 -0.77096,1.320236 -1.19425,2.360355 -2.11442,5.195734 -4.91205,7.926448 -9.44332,9.217427 -1.88216,0.536234 -2.24896,0.790422 -2.24896,1.558507 0,1.026985 0.51532,1.275757 2.30983,1.115063 1.08584,-0.09723 2.34001,-0.467159 3.67504,-1.083982 z m -75.94826,0.499708 c -0.57982,-0.579827 -0.52251,-0.821172 0.0681,-0.286692 0.58769,0.531849 1.52417,0.541096 3.61719,0.03572 0.87313,-0.210825 1.82563,-0.374822 2.11667,-0.36444 0.7811,0.02787 -3.55993,0.99826 -4.54517,1.016024 -0.46254,0.0083 -1.02809,-0.171932 -1.25677,-0.400608 z m -83.49493,-0.213289 c 0,-0.05494 0.20836,-0.2633 0.46302,-0.463021 0.41964,-0.329107 0.429,-0.319749 0.0999,0.0999 -0.34565,0.44073 -0.56292,0.580888 -0.56292,0.363125 z m 48.85714,-0.561562 c 0.0982,-0.436563 0.26112,-1.389063 0.36201,-2.116667 l 0.18342,-1.322916 0.0171,1.190625 c 0.009,0.654843 -0.15348,1.607343 -0.36201,2.116666 -0.34131,0.833665 -0.36132,0.846863 -0.20055,0.132292 z m 28.28342,-2.844271 c -0.23737,-4.838581 0.11597,-10.83493 0.64693,-10.978972 0.29764,-0.08075 0.31327,-0.04855 0.0625,0.12877 -0.25362,0.17935 -0.34273,1.941028 -0.36903,7.296184 -0.0191,3.882861 -0.0648,7.059747 -0.10156,7.059747 -0.0368,0 -0.14427,-1.577578 -0.23886,-3.505729 z m 14.40286,2.5702 c 1.96755,-0.455137 2.60606,-0.967989 2.80788,-2.255288 0.19451,-1.240723 -0.34233,-1.879107 -1.77526,-2.111038 l -1.16251,-0.188161 1.10528,-0.03312 c 0.90079,-0.02699 1.20673,0.09586 1.65365,0.664022 0.64723,0.822823 0.69665,1.68823 0.15609,2.733546 -0.42321,0.818409 -1.36192,1.229902 -3.31189,1.451808 -0.89836,0.102235 -0.76906,0.03798 0.52676,-0.261773 z m 33.73678,0.259831 c 0.56374,-0.223197 11.30423,-1.994419 11.56561,-1.907291 0.15217,0.05072 -2.32832,0.535321 -5.51218,1.076888 -5.37793,0.914768 -6.73761,1.101289 -6.05343,0.830403 z m -123.95729,-0.382635 c 0.21829,-0.141065 0.57547,-0.249936 0.79375,-0.241935 0.26169,0.0096 0.21663,0.092 -0.13229,0.241935 -0.72736,0.312557 -1.14511,0.312557 -0.66146,0 z m 81.60149,-4.497917 c 0,-2.692135 0.0393,-3.793463 0.0873,-2.447395 0.048,1.346067 0.048,3.548723 0,4.894791 -0.048,1.346068 -0.0873,0.24474 -0.0873,-2.447396 z m -66.21388,3.96875 c 0,-0.363802 0.0601,-0.51263 0.13345,-0.330729 0.0734,0.181901 0.0734,0.479557 0,0.661458 -0.0734,0.181901 -0.13345,0.03307 -0.13345,-0.330729 z m -27.63222,0.07886 c 0.56159,-0.108616 1.12656,-1.343173 1.13064,-2.470666 7.9e-4,-0.224088 0.18118,-1.117057 0.40083,-1.984374 1.50749,-5.952699 5.83685,-11.148293 11.06094,-13.274035 1.58319,-0.644218 7.11328,-1.952873 8.0537,-1.905843 0.25413,0.0127 -1.13335,0.363601 -3.08327,0.779761 -5.72333,1.221491 -9.31776,3.283662 -12.07324,6.926566 -1.92228,2.541358 -3.21917,5.467191 -3.83771,8.658005 -0.57974,2.990673 -0.8173,3.475284 -1.67665,3.42028 -0.54714,-0.03502 -0.54644,-0.03922 0.0248,-0.149694 z m 14.0967,-0.07886 c 0.3638,-0.116509 0.89958,-0.211836 1.19062,-0.211836 0.41901,0 0.39147,0.0441 -0.13229,0.211836 -0.3638,0.116509 -0.89958,0.211836 -1.19062,0.211836 -0.41902,0 -0.39148,-0.0441 0.13229,-0.211836 z m 2.18784,-0.447937 c 0.25744,-0.06708 0.61462,-0.06267 0.79375,0.0098 0.17914,0.07248 -0.0315,0.127363 -0.46805,0.121971 -0.43656,-0.0054 -0.58313,-0.06469 -0.3257,-0.131773 z m 2.31007,-0.368226 c 0.75015,-0.14429 1.41087,-0.481621 1.78594,-0.911807 0.6305,-0.723146 0.76508,-0.671113 0.33632,0.130035 -0.29847,0.557689 -1.62206,1.082022 -2.62476,1.039778 -0.43699,-0.01841 -0.2536,-0.112567 0.5025,-0.258006 z m 141.24166,-0.02917 c 0.44163,-0.564187 0.31223,-1.530138 -0.25236,-1.883894 -0.31022,-0.194373 -1.92084,0.01072 -5.76521,0.73416 -2.93409,0.552138 -5.38596,0.952643 -5.4486,0.890011 -0.11945,-0.119451 10.01204,-2.072322 10.74339,-2.070814 0.57205,0.0011 1.29778,0.84596 1.29778,1.510662 0,0.298143 -0.20836,0.705488 -0.46302,0.905208 -0.41636,0.326533 -0.42765,0.317934 -0.11198,-0.08533 z m -47.02259,-0.883666 c -0.45163,-0.514384 -0.82115,-1.040429 -0.82115,-1.168985 0,-0.128555 -0.0665,-0.451834 -0.14784,-0.718396 -0.0813,-0.266565 0.11146,-0.0084 0.42836,0.573672 0.92736,1.703345 1.2793,1.98497 2.47246,1.978491 2.02564,-0.01101 2.42679,-0.604843 4.91115,-7.270157 1.92141,-5.154983 3.72561,-9.468241 3.89121,-9.302639 0.0512,0.05124 -0.21831,0.796084 -0.59901,1.655196 -0.38071,0.859116 -1.62435,4.022902 -2.76365,7.030638 -1.1393,3.007736 -2.25572,5.824958 -2.48095,6.260491 -0.64255,1.242552 -1.65741,1.896938 -2.94188,1.896938 -0.95947,0 -1.24994,-0.139409 -1.9487,-0.935249 z m -84.76462,-0.420499 c 0.17947,-0.180822 0.39297,-0.262115 0.47443,-0.180653 0.0815,0.08146 -0.0654,0.229407 -0.32632,0.328766 -0.37708,0.143584 -0.40747,0.113194 -0.14811,-0.148113 z m 17.26847,-0.216136 c 0,-0.136932 0.1177,-0.321712 0.26155,-0.410617 0.14998,-0.0927 0.19434,0.01352 0.10399,0.248967 -0.1759,0.45837 -0.36554,0.542235 -0.36554,0.16165 z m -16.00729,-0.270986 c 0.50085,-0.223946 2.72577,-0.382318 2.49149,-0.177348 -0.0606,0.05305 -0.76509,0.167886 -1.56545,0.255201 -0.95034,0.103672 -1.27162,0.07666 -0.92604,-0.07785 z m 68.92218,-0.672806 c -0.36053,-0.434412 -0.23167,-2.648379 0.17799,-3.058036 0.28907,-0.289076 4.51136,-1.111774 4.93968,-0.962477 0.16943,0.05906 -0.58491,0.250142 -1.67631,0.424632 -3.05215,0.487963 -3.175,0.570987 -3.175,2.145662 0,1.139349 0.0881,1.372505 0.59531,1.576401 0.5844,0.2349 0.58499,0.239593 0.0324,0.256056 -0.3096,0.0092 -0.71193,-0.162782 -0.89407,-0.382238 z m -51.02681,-1.254636 c 0.68617,-0.691224 1.40526,-1.253151 1.59798,-1.248725 0.19272,0.0044 0.11227,0.138787 -0.17877,0.29858 -0.29104,0.159795 -1.01013,0.721722 -1.59798,1.248727 -0.81634,0.731851 -0.77412,0.661324 0.17877,-0.298582 z m 52.81452,1.213834 c 0.1819,-0.0734 0.47956,-0.0734 0.66146,0 0.1819,0.0734 0.0331,0.133453 -0.33073,0.133453 -0.3638,0 -0.51263,-0.06006 -0.33073,-0.133453 z m 27.04172,-0.310388 c -0.52469,-0.424876 -0.60846,-0.764101 -0.66969,-2.711979 l -0.07,-2.226363 0.20502,1.984375 c 0.24023,2.325238 0.42187,2.835177 1.08486,3.0456 0.42758,0.13571 9.33336,-1.466191 10.37629,-1.866405 0.96146,-0.368943 1.28533,-2.481577 0.54694,-3.567718 l -0.44474,-0.654185 0.57703,0.504029 c 0.94435,0.824886 0.67119,3.244799 -0.43299,3.835735 -0.45181,0.241803 -9.57811,2.142527 -10.28731,2.142527 -0.15714,0 -0.55559,-0.218527 -0.88543,-0.485616 z m -25.7188,0.04581 c 0.1819,-0.0734 0.47955,-0.0734 0.66146,0 0.1819,0.0734 0.0331,0.133453 -0.33073,0.133453 -0.36381,0 -0.51263,-0.06006 -0.33073,-0.133453 z m -34.23431,-2.47061 c 0,-1.382448 0.0446,-1.947995 0.0991,-1.256771 0.0545,0.691224 0.0545,1.822318 0,2.513542 -0.0545,0.691224 -0.0991,0.125677 -0.0991,-1.256771 z m 44.11943,1.028935 c -0.163,-0.467587 -0.25006,-0.896464 -0.19347,-0.953053 0.0566,-0.05659 0.23626,0.279678 0.39926,0.747266 0.163,0.467587 0.25007,0.896464 0.19348,0.953053 -0.0566,0.05659 -0.23626,-0.279678 -0.39927,-0.747266 z m -61.72692,-0.945091 c 0.191,-0.07643 0.4192,-0.06703 0.50712,0.02088 0.0879,0.08792 -0.0683,0.150453 -0.34726,0.138965 -0.30823,-0.0127 -0.37092,-0.07539 -0.15986,-0.159851 z m 92.18348,-0.231138 c -0.32343,-0.226533 -0.58804,-0.52419 -0.58804,-0.661458 0,-0.137271 0.24491,-0.0047 0.54424,0.294659 0.79373,0.793736 2.27299,0.614105 3.00135,-0.364464 0.51656,-0.694015 0.5614,-1.14323 0.64042,-6.416146 0.0795,-5.302284 0.11659,-5.66988 0.57272,-5.66988 0.26826,0 2.07549,1.5132 4.01607,3.362669 1.94057,1.849466 4.43738,4.230716 5.54846,5.291666 2.35595,2.249662 3.09041,2.43758 4.52412,1.157555 l 0.86407,-0.771446 0.14537,-5.380116 0.14536,-5.380119 0.0531,4.987096 c 0.0441,4.145494 -0.0199,5.140926 -0.37947,5.898634 -0.67629,1.425159 -2.32739,2.064329 -3.58876,1.389269 -0.30081,-0.160991 -2.91917,-2.542241 -5.81858,-5.291667 -2.8994,-2.749428 -5.37542,-4.998958 -5.50226,-4.998958 -0.12684,0 -0.26886,2.552274 -0.31559,5.671722 l -0.085,5.671722 -0.7771,0.81057 c -0.88099,0.918927 -2.03821,1.072692 -3.00048,0.398692 z m -91.00939,-0.03509 c 0.25466,-0.06655 0.67138,-0.06655 0.92604,0 0.25466,0.06655 0.0463,0.121002 -0.46302,0.121002 -0.50932,0 -0.71768,-0.05445 -0.46302,-0.121002 z m 59.62792,-1.303351 c -0.23422,-0.687409 -0.38006,-1.295628 -0.32409,-1.351597 0.056,-0.05597 0.29339,0.460663 0.52762,1.148069 0.23422,0.687409 0.38007,1.295627 0.3241,1.351597 -0.056,0.05597 -0.2934,-0.460663 -0.52763,-1.148069 z m -32.3904,0.03053 c 0.005,-0.436563 0.0647,-0.583126 0.13177,-0.325695 0.0671,0.257432 0.0627,0.61462 -0.01,0.79375 -0.0725,0.179131 -0.12736,-0.03149 -0.12197,-0.468055 z m 26.48235,-0.476396 c 0.32222,-0.33478 0.63474,-0.573635 0.69448,-0.530788 0.1544,0.110728 -0.80821,1.139475 -1.06622,1.139475 -0.11776,0 0.0495,-0.27391 0.37174,-0.608687 z m 36.54672,-4.153813 c 0,-2.692135 0.0393,-3.793463 0.0873,-2.447395 0.048,1.346067 0.048,3.548724 0,4.894791 -0.048,1.346068 -0.0873,0.24474 -0.0873,-2.447396 z m -9.92004,2.988435 c -0.40314,-1.060339 -0.0491,-2.709344 0.64218,-2.990866 0.73439,-0.299088 4.16629,-0.854183 4.32149,-0.698982 0.0652,0.06523 -0.75237,0.258583 -1.8169,0.429665 -3.065,0.49258 -2.89774,0.368713 -2.80796,2.079501 l 0.0787,1.499539 1.19063,-0.04738 c 1.04365,-0.04153 1.09264,-0.0209 0.39687,0.167135 -1.40101,0.378629 -1.7209,0.308652 -2.00501,-0.43861 z m -63.54992,0.153733 c 0.17948,-0.180821 0.39297,-0.262115 0.47443,-0.180652 0.0815,0.08146 -0.0654,0.229407 -0.32631,0.328766 -0.37709,0.143584 -0.40748,0.113194 -0.14812,-0.148114 z m 67.01014,-0.231751 c 0.3638,-0.116509 0.89958,-0.211836 1.19062,-0.211836 0.41902,0 0.39148,0.0441 -0.13229,0.211836 -0.3638,0.116509 -0.89958,0.211836 -1.19062,0.211836 -0.41902,0 -0.39148,-0.0441 0.13229,-0.211836 z m -65.74896,-0.25223 c 0.50793,-0.230122 1.92507,-0.380162 1.69775,-0.179748 -0.0606,0.05346 -0.5865,0.169709 -1.16858,0.258342 -0.73761,0.112313 -0.89797,0.08849 -0.52917,-0.07859 z m 67.93177,-0.194742 c 0.25466,-0.06655 0.67138,-0.06655 0.92604,0 0.25466,0.06655 0.0463,0.121002 -0.46302,0.121002 -0.50932,0 -0.71768,-0.05445 -0.46302,-0.121002 z m 31.26712,-1.222787 c -0.72428,-0.623001 -0.77018,-0.785053 -0.81247,-2.86871 l -0.0448,-2.208409 0.1884,1.984375 c 0.10362,1.091406 0.33418,2.250861 0.51236,2.576563 0.42032,0.768334 1.40138,1.002276 2.33196,0.556077 1.33177,-0.638564 1.40819,-1.103907 1.41241,-8.601103 0.004,-6.858146 0.0729,-7.760703 0.59377,-7.760703 0.17358,0 0.1679,0.121431 -0.0161,0.343091 -0.18373,0.221379 -0.31255,2.94133 -0.36313,7.66732 l -0.0784,7.324233 -0.66146,0.660643 c -1.0102,1.008957 -2.13041,1.128429 -3.06256,0.326623 z m -69.41237,-1.659583 c 0.0127,-0.308227 0.0754,-0.37092 0.15985,-0.159854 0.0764,0.190995 0.067,0.419201 -0.0209,0.507119 -0.0879,0.08792 -0.15046,-0.06835 -0.13897,-0.347265 z m -8.23486,-0.663866 c 1.39406,-0.273267 2.10435,-0.904462 2.39294,-2.126451 0.20192,-0.855014 0.21173,-0.861071 0.23769,-0.146804 0.0149,0.409749 -0.10156,0.985377 -0.25879,1.27917 -0.34501,0.64465 -1.80225,1.293998 -2.81448,1.254133 -0.53479,-0.02106 -0.41373,-0.09218 0.44264,-0.260048 z m 7.97027,-0.394468 c 0.0127,-0.308226 0.0754,-0.370919 0.15985,-0.159853 0.0764,0.190995 0.067,0.419201 -0.0209,0.507119 -0.0879,0.08792 -0.15045,-0.06835 -0.13896,-0.347266 z m 39.1829,0.02205 c 0.24329,-0.291041 0.49212,-0.945885 0.55297,-1.455208 l 0.11063,-0.926042 0.0423,0.95118 c 0.0309,0.694838 -0.1181,1.087017 -0.55297,1.455208 -0.59061,0.500047 -0.59182,0.499846 -0.15298,-0.02514 z m -38.9392,-0.875818 c 0,-0.349805 0.45689,-0.488465 2.77812,-0.843108 3.35873,-0.513154 3.74573,-0.769966 4.1878,-2.778992 0.10186,-0.462891 0.12029,-0.452959 0.14713,0.07928 0.051,1.011031 -0.68376,2.102942 -1.61835,2.405007 -0.47547,0.153675 -1.75746,0.41412 -2.84887,0.57877 -1.09141,0.164651 -2.1332,0.420601 -2.3151,0.568778 -0.22584,0.183967 -0.33073,0.180879 -0.33073,-0.0097 z m 68.7876,-6.334079 c -0.002,-2.582995 -0.11193,-4.866833 -0.24378,-5.075195 -0.19832,-0.313386 -0.42006,-0.324816 -1.28342,-0.06615 -1.36069,0.407673 -1.70227,0.39465 -2.32078,-0.08848 -0.47747,-0.37296 -0.46319,-0.379627 0.20302,-0.09483 0.55378,0.236731 0.99808,0.227542 1.95522,-0.04044 1.8859,-0.528021 1.95838,-0.330043 1.95838,5.349513 0,2.591562 -0.0595,4.71193 -0.13229,4.71193 -0.0728,0 -0.13412,-2.11336 -0.13635,-4.696354 z m -11.24074,3.902604 c 0.0899,-0.145521 0.21603,-0.264584 0.2802,-0.264584 0.0642,0 0.11668,0.119063 0.11668,0.264584 0,0.145521 -0.12609,0.264583 -0.2802,0.264583 -0.15411,0 -0.20661,-0.119062 -0.11668,-0.264583 z m -32.38754,-1.190625 c 0,-0.145521 0.2869,-0.800365 0.63755,-1.455208 0.35065,-0.654844 0.63755,-1.071563 0.63755,-0.926042 0,0.145521 -0.2869,0.800364 -0.63755,1.455208 -0.35065,0.654844 -0.63755,1.071563 -0.63755,0.926042 z m 7.42677,-1.118381 c -0.031,-0.625919 0.11654,-0.954463 0.55297,-1.230976 0.59675,-0.378098 4.36399,-1.113901 4.5828,-0.895099 0.0641,0.06406 -0.74738,0.269973 -1.80321,0.457576 -2.78364,0.494609 -3.05762,0.636582 -3.18252,1.6491 l -0.1077,0.873196 z m -109.64599,-0.512056 c 0.18191,-0.0734 0.47956,-0.0734 0.66146,0 0.1819,0.0734 0.0331,0.133453 -0.33073,0.133453 -0.3638,0 -0.51263,-0.06006 -0.33073,-0.133453 z m 1.52026,-0.332666 c 0.29298,-0.11436 0.67704,-0.665559 0.86272,-1.238175 0.32506,-1.002451 0.33074,-1.006214 0.19797,-0.131231 -0.16176,1.066035 -0.56405,1.619776 -1.15813,1.59412 -0.32595,-0.01408 -0.30226,-0.0687 0.0974,-0.224714 z m 10.7696,-1.483714 c 0.10185,-0.102695 1.41153,-0.410707 2.91042,-0.684472 5.5283,-1.009716 15.06482,-2.68025 20.98149,-3.675377 11.24766,-1.891744 19.83939,-3.446478 20.42614,-3.696253 0.5739,-0.244303 0.55774,-0.299799 -1.10736,-3.804033 -2.58024,-5.430171 -4.0059,-9.964796 -4.50413,-14.32638 -0.27827,-2.436093 0.0137,-1.641083 0.51624,1.405792 0.63675,3.86035 2.0208,8.024471 4.17756,12.568819 1.19185,2.511232 1.76914,4.011964 1.60605,4.175053 -0.32515,0.325155 -10.08228,2.147319 -23.23116,4.338473 -5.92251,0.986936 -14.2043,2.442239 -17.19792,3.022074 -3.87348,0.750252 -4.78409,0.884796 -4.57733,0.676304 z m 103.63126,-0.223988 c 1.09249,-0.395243 1.87426,-1.311775 1.91529,-2.245485 0.0213,-0.484886 0.0689,-0.550391 0.15573,-0.214344 0.30153,1.167104 -1.2896,2.877553 -2.60765,2.803213 -0.19629,-0.01106 0.0452,-0.165595 0.53663,-0.343384 z m 36.0379,-5.55239 c 0.0606,-0.05229 0.46743,-0.174969 0.90399,-0.272621 0.57968,-0.129665 0.68672,-0.105119 0.39688,0.09102 -0.35729,0.241779 -1.56637,0.410567 -1.30087,0.181601 z m 4.64973,-0.448664 c -0.62096,-0.488453 -0.69995,-0.728359 -0.67665,-2.055157 0.0145,-0.826182 0.11811,-1.799806 0.23024,-2.163609 0.11574,-0.375509 0.15091,0.196387 0.0814,1.322917 -0.14002,2.267987 0.18139,2.976562 1.35019,2.976562 1.65115,0 2.69569,-2.003906 2.47535,-4.748839 -0.33017,-4.113199 -3.88645,-8.108809 -7.24459,-8.139557 -1.59424,-0.0146 -2.25817,0.670105 -2.15681,2.224284 l 0.0785,1.203888 1.71914,0.611407 c 0.94553,0.336272 1.99863,0.872363 2.34024,1.19131 0.69091,0.645078 1.37011,1.825064 1.35422,2.352702 -0.006,0.189127 -0.16778,-0.01331 -0.36019,-0.449882 -0.50128,-1.137385 -1.63988,-2.176462 -2.76153,-2.520159 -2.08401,-0.638577 -2.40029,-0.839091 -2.6852,-1.7024 -0.18678,-0.565939 -0.19748,-1.088218 -0.0313,-1.525416 0.32243,-0.848042 1.51604,-1.792649 2.26521,-1.792649 2.25765,0 5.65659,2.576009 6.92002,5.244575 0.93879,1.982894 1.15088,4.596691 0.5093,6.276658 -0.70788,1.853538 -2.23754,2.613697 -3.40755,1.693365 z m -2.14123,-1.121323 c 0.0994,-0.260937 0.24731,-0.407781 0.32877,-0.326319 0.0815,0.08146 1.7e-4,0.294955 -0.18065,0.474433 -0.26131,0.25936 -0.2917,0.22897 -0.14812,-0.148114 z m -121.54692,-0.799391 c -0.69298,-0.737645 -0.76848,-2.286407 -0.15695,-3.219714 0.63806,-0.973797 1.98638,-1.337948 10.27311,-2.774551 5.51283,-0.955712 7.74339,-1.247449 7.98766,-1.04472 0.39934,0.331417 1.95839,3.585964 1.95839,4.088159 0,0.410437 0.57441,0.283361 -9.5217,2.10653 -4.43657,0.801164 -8.4937,1.456661 -9.01585,1.456661 -0.65027,0 -1.13062,-0.192929 -1.52466,-0.612365 z m 30.89951,-1.702739 c -1.14789,-1.444522 -5.25631,-10.497827 -4.91763,-10.836502 0.0646,-0.06459 0.20411,0.159425 0.31005,0.497813 0.86167,2.752387 4.86634,10.810539 5.36569,10.796794 0.0982,-0.0027 3.21465,-0.540277 6.92543,-1.194607 3.71078,-0.654331 9.18515,-1.608074 12.16528,-2.119429 2.98012,-0.511355 5.49714,-1.015579 5.59336,-1.120497 0.0962,-0.104918 0.66786,-1.857634 1.27029,-3.894926 2.20971,-7.472812 4.6613,-11.35272 10.27392,-16.259604 1.62603,-1.42158 1.87023,-1.74193 1.60199,-2.10153 -0.2093,-0.28059 -0.14218,-0.26183 0.19819,0.0554 0.50747,0.47295 0.50357,0.48907 -0.27908,1.15174 -7.10456,6.015461 -9.59948,9.864894 -11.78924,18.189675 -0.41777,1.588262 -0.8544,2.982561 -0.97028,3.09844 -0.11588,0.115877 -2.6502,0.630402 -5.63183,1.143384 -2.98163,0.512982 -8.45724,1.468562 -12.16802,2.123509 -3.71078,0.654944 -6.88706,1.192418 -7.0584,1.194384 -0.17134,0.0019 -0.57171,-0.32385 -0.88972,-0.724032 z m 1.39387,-3.885994 c -0.27898,-0.354666 -0.85316,-1.310147 -1.27597,-2.123291 -0.60228,-1.158304 -0.69369,-1.525479 -0.42217,-1.695659 0.73705,-0.461957 25.3589,-4.711631 25.64438,-4.426159 0.22916,0.229166 -1.21407,4.560012 -1.63641,4.910521 -0.16754,0.139049 -2.62023,0.673044 -5.45041,1.186656 -10.581,1.9202 -15.56535,2.79278 -15.95294,2.79278 -0.21958,0 -0.6275,-0.290182 -0.90648,-0.644848 z m 31.51683,-1.349779 c -0.15724,-0.409753 0.66537,-3.951036 0.8702,-3.746201 0.0567,0.05674 -0.10299,0.889196 -0.35496,1.849898 -0.25198,0.960699 -0.40233,1.802233 -0.33412,1.870072 0.0682,0.06784 1.37416,-0.107667 2.90213,-0.390014 5.51348,-1.018818 19.10542,-3.409961 19.38319,-3.409961 0.95923,0 -0.65282,0.344088 -6.15402,1.313561 -7.49046,1.320035 -14.72652,2.624177 -15.55008,2.802565 -0.39361,0.08526 -0.65678,-0.01482 -0.76234,-0.28992 z m 67.10653,-2.307812 c -1.53536,-2.73689 -4.86634,-5.364149 -8.03215,-6.335242 -2.5433,-0.780139 -5.38197,-0.73542 -10.18557,0.160454 -2.09209,0.390179 -3.92845,0.667864 -4.08079,0.617083 -0.25679,-0.0856 6.32663,-1.289847 9.1097,-1.666365 3.40164,-0.460203 8.06737,1.256049 10.96493,4.033364 1.47783,1.416492 3.24838,3.916884 2.97042,4.194847 -0.0646,0.06456 -0.4005,-0.387305 -0.74654,-1.004141 z m -44.02991,-1.865038 c 0.15911,-0.41461 -0.69973,-1.734044 -2.87433,-4.415856 -0.88499,-1.091406 -1.27645,-1.686718 -0.86991,-1.322916 0.40653,0.363802 1.50069,1.67345 2.43147,2.910326 1.56793,2.083586 2.0616,3.17509 1.43603,3.17509 -0.14095,0 -0.19642,-0.15599 -0.12326,-0.346644 z m 6.57699,-2.21294 c -1.17139,-1.474071 -1.61978,-2.221103 -0.6412,-1.068229 0.3638,0.428596 0.89959,1.058169 1.19063,1.399051 l 0.52916,0.619786 5.02709,-0.913043 c 6.43153,-1.168124 7.17212,-1.285922 7.01146,-1.11525 -0.0728,0.07729 -2.57308,0.578482 -5.55625,1.11375 -2.98318,0.535268 -5.67647,1.033423 -5.98509,1.107012 -0.43241,0.103105 -0.79388,-0.159108 -1.5758,-1.143077 z m -67.82447,0.26612 c -0.0115,-0.17 -0.0894,-0.527187 -0.17316,-0.79375 -0.14474,-0.460697 -0.13727,-0.461274 0.15102,-0.01167 0.16681,0.260144 0.24473,0.617331 0.17316,0.79375 -0.0939,0.231508 -0.13594,0.234757 -0.15102,0.01167 z m 81.54195,-1.594056 c 0.25743,-0.06708 0.61462,-0.06267 0.79375,0.0098 0.17913,0.07248 -0.0315,0.127363 -0.46805,0.12197 -0.43657,-0.0054 -0.58313,-0.06469 -0.3257,-0.131773 z"
         id="path13284" /><path
         style="fill:#093569;stroke-width:0.264583"
         d="m 217.77591,8.3755595 c -10.80026,-1.52357 -21.26203,-5.38651 -29.99119,-11.07406 -4.103,-2.67334 -6.06513,-4.29182 -10.415,-8.5909195 l -3.36452,-3.32526 -6.42506,1.24062 c -16.80824,3.24553 -20.30745,3.6760295 -24.28443,2.98766 -3.76682,-0.652 -6.8148,-2.21094 -9.05634,-4.632 -1.47502,-1.59317 -3.65646,-5.03882 -3.63765,-5.74581 0.003,-0.12424 0.41035,0.52439 0.90455,1.4414 2.60108,4.82642 5.90667,7.39242 10.8634,8.43284 2.3852,0.50065 7.05489,0.47961 9.92187,-0.0447 1.23693,-0.22621 4.27302,-0.75624 6.74688,-1.17786 8.86929,-1.51157 14.08115,-2.59056 14.31121,-2.9628 0.0849,-0.13738 -0.34362,-0.90936 -0.95227,-1.71551 -0.91844,-1.21645 -1.21015,-1.43976 -1.71523,-1.31299 -0.60621,0.15215 -4.2445,0.79139 -15.95073,2.80249 -8.92215,1.53281 -11.45368,1.42476 -15.91428,-0.67922 -3.644,-1.7188 -6.98106,-6.07791 -7.96795,-10.4083 -0.36578,-1.60504 -0.21084,-5.93134 0.26622,-7.43352 0.16176,-0.509323 0.42337,-1.342761 0.58138,-1.852083 0.158,-0.509323 0.77857,-1.640417 1.37904,-2.513542 l 1.09177,-1.5875 0.13229,-4.60612 c 0.11353,-3.952618 0.18382,-4.543846 0.49542,-4.167188 0.43629,0.527368 1.18315,0.569937 1.58135,0.09013 0.15922,-0.191839 0.53013,-1.590217 0.82426,-3.107508 0.88857,-4.583821 3.34576,-8.889084 6.58749,-11.542037 2.56746,-2.101143 5.18982,-3.169298 10.38836,-4.231452 2.5284,-0.516596 4.73771,-1.052438 4.90959,-1.19076 0.17188,-0.138319 0.4444,-0.866444 0.60559,-1.618054 1.02369,-4.773348 5.51867,-14.465237 9.41242,-20.294727 11.00293,-16.472889 28.36175,-27.557539 47.87781,-30.572849 4.3719,-0.67548 13.43502,-0.8128 17.59479,-0.26659 4.82442,0.63347 8.12699,1.36361 12.29642,2.7185 10.96668,3.5637 20.26441,9.28908 28.44941,17.51865 2.78289,2.798044 4.79659,5.106648 6.26504,7.182531 1.1902,1.682539 2.32699,3.194421 2.52619,3.35974 0.3728,0.309404 0.20765,0.33591 16.34419,-2.623177 7.04168,-1.291288 9.54109,-1.4039 12.30312,-0.55432 2.14646,0.660238 3.86082,1.685792 5.71097,3.416387 4.56031,4.265644 5.3288,11.157433 1.95197,17.505224 -0.64936,1.220663 -1.18065,2.279174 -1.18065,2.352244 0,0.07307 0.30799,-0.06895 0.68441,-0.315593 0.37643,-0.246644 0.75618,-0.376684 0.84389,-0.288975 0.0877,0.08771 0.024,2.686833 -0.14173,5.77583 -0.3459,6.449835 -0.58784,7.416556 -3.07116,12.271414 -2.37066,4.634616 -4.81698,7.229337 -8.89874,9.438579 -2.22421,1.203846 -4.2298,1.791427 -10.82634,3.171809 -3.51813,0.736198 -5.47593,1.264901 -5.61323,1.515856 -0.11597,0.21195 -1.00351,2.319448 -1.97231,4.683328 -5.9732,14.574643 -16.3063,26.4351925 -29.74228,34.13883251 -6.84817,3.92645999 -13.2288,6.16332999 -22.48958,7.88421999 -3.41542,0.63467 -4.59143,0.7221 -10.71563,0.79665 -4.90243,0.0597 -7.63945,-0.0235 -9.525,-0.28951 z m 17.99167,-6.33185 c 9.31308,-1.50853999 17.5725,-4.63899 24.47396,-9.27602 3.7125,-2.4944 7.67291,-5.5602395 7.67291,-5.9397795 0,-0.13775 -0.38695,-0.53125 -0.85989,-0.87445 -8.2807,-6.00897 -12.19417,-9.90821 -16.06396,-16.005538 -0.76195,-1.200547 -1.52227,-2.179902 -1.68961,-2.176343 -0.16733,0.0035 -0.83017,0.12769 -1.47297,0.275854 -1.12096,0.258382 -8.25857,1.497997 -20.39482,3.542047 -3.12869,0.52695 -5.9425,1.06376 -6.25289,1.19292 -0.4427,0.1842 -0.6598,0.6811 -1.00714,2.30512 -1.22766,5.74014 -3.26929,10.75086 -6.16309,15.1258895 -1.54376,2.33397 -5.3697,6.51454 -7.18087,7.84649 -0.59363,0.43656 -1.08214,0.91902 -1.08558,1.07214001 -0.0148,0.65832 8.58327,2.78083999 13.75207,3.39483999 2.26032,0.2685 13.73485,-0.0722 16.27188,-0.48317 z m -36.4556,-6.92587 c 1.55222,-0.52538 4.42338,-2.35351 6.04747,-3.85053 1.87338,-1.7268195 4.31923,-5.1373395 5.56471,-7.7594895 2.14651,-4.51909 3.38326,-9.39271 2.38355,-9.39271 -0.20194,0 -1.89859,0.29263 -3.77032,0.65029 -1.87173,0.35766 -7.33221,1.31467 -12.13439,2.12669 -17.76604,3.00413 -18.38854,3.1287 -18.38854,3.67983 0,0.5052 0.83921,1.54216 3.55373,4.39111 2.88669,3.02963 5.84339,5.5769995 8.91685,7.6823795 4.30853,2.95142 5.39646,3.29509 7.82694,2.47243 z M 275.47247,-20.92395 c 2.80744,-3.52494 5.32358,-7.44737 7.24266,-11.290652 2.09795,-4.201504 2.57737,-5.50223 2.17597,-5.903634 -0.19478,-0.194784 -1.43915,-0.06359 -4.14383,0.436893 -2.126,0.393401 -8.1341,1.421291 -13.35133,2.284201 -5.21724,0.862909 -9.79246,1.685488 -10.16718,1.827953 -0.8374,0.318381 -0.76637,0.557122 0.91114,3.062189 2.41214,3.6021 4.66414,5.87804 8.31934,8.40782 1.99328,1.37954 5.893,3.33384 6.68007,3.34762 0.4338,0.008 1.06493,-0.58005 2.33316,-2.17239 z m -125.87411,1.19873 c 0.96947,-0.46005 1.37026,-1.21743 1.37026,-2.5894 0,-0.49127 0.0983,-0.95395 0.21842,-1.0282 0.12013,-0.0742 2.0549,-0.44294 4.29948,-0.81932 2.24458,-0.37638 4.31919,-0.7552 4.61023,-0.84183 0.50767,-0.1511 0.51036,-0.13641 0.0662,0.36152 -0.52659,0.59027 -0.58646,1.20754 -0.18913,1.94995 0.37492,0.70054 1.23676,0.66334 6.24616,-0.26959 9.31227,-1.73427 11.76157,-2.17786 15.30807,-2.77243 2.03729,-0.34155 5.54964,-0.98378 7.80521,-1.42718 2.25557,-0.4434 4.99401,-0.94942 6.08542,-1.12449 2.31341,-0.37108 3.1766,-0.81744 3.17094,-1.639695 -0.005,-0.790019 -0.26728,-1.140126 -1.03123,-1.378812 -0.5551,-0.173429 -0.581,-0.231593 -0.19844,-0.445683 0.67529,-0.37791 0.54382,-1.462606 -0.23948,-1.975845 -0.64978,-0.425749 -0.98214,-0.390186 -7.60678,0.813904 -3.81002,0.692507 -9.12996,1.655524 -11.8221,2.140037 -2.69213,0.484513 -6.97838,1.257895 -9.525,1.718634 -2.54661,0.46073 -6.41614,1.11293 -8.59895,1.44933 -2.18282,0.3364 -6.4796,1.05722 -9.54841,1.60182 -3.26361,0.57917 -5.86995,0.91732 -6.279,0.81465 -0.98002,-0.24597 -2.48732,-1.6381 -3.16258,-2.92095 -0.45371,-0.86195 -0.57717,-1.58128 -0.60403,-3.519395 -0.0367,-2.65072 -0.28959,-3.252528 -1.3666,-3.252528 -1.39901,0 -2.71959,2.332614 -2.71959,4.803753 0,6.1627 5.61928,11.48728 11.50619,10.90277 0.72586,-0.0721 1.71801,-0.32003 2.20479,-0.55102 z m 15.34357,-6.07583 c 0.19099,-0.0764 0.4192,-0.067 0.50712,0.0209 0.0879,0.0879 -0.0684,0.15045 -0.34727,0.13896 -0.30822,-0.0127 -0.37092,-0.0754 -0.15985,-0.15985 z m -16.0456,-5.640066 c 2.85249,-0.61721 4.13002,-1.257732 5.34904,-2.681883 1.95736,-2.286736 2.64101,-6.100421 1.41871,-7.914187 -0.90663,-1.345348 -1.99368,-1.837629 -4.74659,-2.149531 -3.59028,-0.406778 -4.56154,-0.73016 -4.65725,-1.550643 -0.12164,-1.042702 0.8848,-1.766978 3.26563,-2.350106 1.15732,-0.283456 2.69952,-0.592693 3.42713,-0.687194 2.88078,-0.374153 3.57187,-0.858798 3.57187,-2.504861 0,-1.064112 -0.95893,-2.029775 -2.25756,-2.273398 -1.56817,-0.29419 -5.13278,0.06225 -7.10838,0.71079 -3.64588,1.196859 -6.1515,4.592825 -5.932,8.039883 0.20929,3.286874 1.79856,4.568176 6.51721,5.254294 2.94248,0.427855 3.48907,0.686583 3.48907,1.65154 0,1.111437 -2.25392,1.87158 -7.01146,2.364644 -2.00476,0.207772 -2.70466,0.651859 -2.9313,1.859915 -0.387,2.062922 1.00755,3.140972 3.72505,2.87963 0.87312,-0.08397 2.6195,-0.37597 3.88083,-0.648893 z m 55.99437,-0.05294 c 0.20332,-0.203311 0.3175,-1.240729 0.3175,-2.884532 v -2.567035 l 0.79375,-0.276704 c 0.87062,-0.303498 1.10903,-1.258186 0.38371,-1.536518 -0.35086,-0.134638 -2.58654,0.198261 -4.16944,0.620843 -0.7379,0.196995 -0.47073,1.251095 0.34615,1.365726 0.93179,0.130752 1.0497,0.436065 1.05428,2.729809 0.002,1.115886 0.0763,2.217214 0.16465,2.447396 0.19098,0.497665 0.66921,0.54121 1.1094,0.101015 z m 7.88468,-2.198145 c 0.34406,-1.184103 0.76328,-1.252588 1.51687,-0.247803 0.94576,1.261006 2.25499,0.50969 1.39609,-0.801161 -0.52341,-0.798814 -0.52965,-1.435436 -0.0207,-2.108356 0.5981,-0.790768 0.4775,-1.934964 -0.28425,-2.696716 -0.60935,-0.609351 -0.80249,-0.655642 -2.05052,-0.491476 -0.7578,0.09968 -1.52421,0.320339 -1.70315,0.490352 -0.45632,0.433578 -0.73946,5.379484 -0.36292,6.339535 0.41455,1.056968 1.12718,0.828154 1.50855,-0.484375 z m 0.18762,-3.473442 c -0.22264,-0.580194 0.2548,-1.286954 0.86937,-1.286954 0.59326,0 0.8086,0.796448 0.36112,1.335627 -0.4242,0.51113 -1.02479,0.487373 -1.23049,-0.04867 z m -51.44478,3.492992 c 1.26427,-0.653783 1.47691,-1.136988 1.61936,-3.679941 l 0.13417,-2.395056 2.57057,-0.599215 c 4.1272,-0.962079 6.0985,-2.270473 7.45233,-4.946278 1.82253,-3.602156 1.4694,-6.917848 -0.99201,-9.314605 -2.27588,-2.216105 -4.13138,-2.418411 -10.06098,-1.096952 -3.97754,0.886425 -3.71359,0.11172 -3.81993,11.211583 -0.0924,9.645459 -0.0219,10.343668 1.09854,10.885373 0.79684,0.385242 1.14962,0.37378 1.99795,-0.06491 z m 2.08426,-11.942661 c -0.10914,-0.110837 -0.19844,-1.189519 -0.19844,-2.397072 0,-2.575266 0.093,-2.675128 2.71344,-2.914348 1.52683,-0.13938 1.69968,-0.09972 2.27814,0.522784 0.73747,0.79361 1.02735,2.727698 0.50628,3.377877 -0.18617,0.232299 -0.70324,0.610828 -1.14904,0.841177 -0.91728,0.473959 -3.84844,0.876218 -4.15038,0.569582 z m 58.25883,10.896106 c 0.69248,-1.293918 2.84515,-1.636662 3.92252,-0.624538 0.61207,0.575 0.64597,0.578511 0.99378,0.102864 0.30804,-0.421264 0.28988,-0.669861 -0.12566,-1.719791 -1.53215,-3.87132 -2.46446,-5.296342 -3.26428,-4.989422 -0.33498,0.128542 -2.76338,5.915964 -2.85529,6.804786 -0.12689,1.22704 0.74984,1.508146 1.32893,0.426101 z m 11.48832,-2.476622 c 0.29816,-1.044178 0.51132,-1.061341 1.83018,-0.147372 0.77661,0.538191 1.13228,0.646853 1.45368,0.444119 0.76309,-0.481346 0.64604,-0.853602 -0.64881,-2.063388 -0.95546,-0.892693 -1.20906,-1.281766 -1.01085,-1.550871 1.06134,-1.440987 1.97583,-2.992014 1.89944,-3.221521 -0.21589,-0.648529 -1.03326,-0.382725 -1.9445,0.632335 -0.53229,0.592929 -1.07027,1.078053 -1.19552,1.078053 -0.12525,0 -0.3409,-0.297656 -0.47921,-0.661458 -0.28344,-0.745488 -1.17576,-0.897414 -1.4269,-0.242943 -0.22506,0.586493 -0.20146,6.331597 0.0269,6.560007 0.44886,0.44886 1.25917,7.94e-4 1.49554,-0.826961 z m 11.879,-1.022741 c 1.75032,-0.347157 1.29913,-2.05659 -0.46717,-1.769959 -1.32336,0.214751 -1.23025,-0.512498 0.13424,-1.048483 0.76237,-0.299469 1.05834,-0.569661 1.05834,-0.966176 0,-0.568397 -0.16958,-0.638241 -1.36283,-0.561301 -0.83429,0.05379 -1.22722,-0.436573 -0.719,-0.897313 0.19912,-0.18052 0.86805,-0.47153 1.48651,-0.646689 0.91814,-0.260035 1.12448,-0.433859 1.12448,-0.947264 0,-0.345834 -0.14036,-0.675576 -0.31193,-0.732763 -0.3712,-0.123738 -3.44844,0.429032 -3.88279,0.69747 -0.43922,0.271455 -0.4145,6.552753 0.0275,6.998144 0.31435,0.316733 0.78434,0.296455 2.91262,-0.125666 z m -56.42459,-0.67115 c 2.98413,-1.393335 5.07951,-3.964146 6.48847,-7.960627 0.95095,-2.697379 0.86653,-5.613148 -0.22894,-7.907567 -0.83657,-1.752126 -2.86267,-3.749887 -4.56827,-4.504357 -4.82827,-2.135772 -11.0501,0.790152 -13.74437,6.46353 -2.15392,4.535543 -1.68107,8.888351 1.30899,12.0499 2.16155,2.285521 3.25005,2.704449 6.77537,2.607622 2.05024,-0.05631 2.78177,-0.194278 3.96875,-0.748501 z m -5.68854,-4.970751 c -1.77315,-0.90847 -2.94755,-3.176838 -2.61001,-5.041227 0.39965,-2.207414 2.55453,-4.7317 4.50053,-5.272048 1.99448,-0.553805 3.16492,-0.378669 4.29551,0.642755 1.36247,1.23091 1.70444,2.13972 1.57429,4.183745 -0.0895,1.405009 -0.25905,1.890257 -1.04108,2.978981 -1.80373,2.511104 -4.64387,3.571118 -6.71924,2.507794 z m 69.53605,3.355557 c 0.26932,-1.13883 0.43613,-1.203301 1.12987,-0.436721 0.81856,0.904496 1.34451,1.084553 1.80957,0.619493 0.37466,-0.374661 0.37355,-0.49013 -0.0119,-1.235462 -0.3907,-0.755538 -0.39054,-0.880779 0.002,-1.54524 0.23492,-0.397688 0.42713,-1.202071 0.42713,-1.78752 0,-1.528424 -0.9716,-2.27186 -2.70441,-2.069338 -2.30925,0.269912 -2.32256,0.291873 -2.32256,3.833286 0,3.167602 0.19342,3.851235 1.04332,3.687559 0.21609,-0.04161 0.49828,-0.521341 0.62711,-1.066057 z m 0.18165,-3.614586 c 0,-0.596866 0.36075,-1.079974 0.80644,-1.079974 0.59708,0 0.83497,0.345411 0.62132,0.902166 -0.16935,0.441333 -1.42776,0.598048 -1.42776,0.177808 z m 22.0927,1.849035 c 6.11188,-1.034285 11.2911,-1.935578 11.50938,-2.002867 0.21828,-0.06729 2.14304,-0.412718 4.27725,-0.767619 2.1342,-0.354902 4.1285,-0.778069 4.43177,-0.940375 0.66791,-0.357454 0.76287,-1.888265 0.14874,-2.397942 -0.35562,-0.295145 -0.34018,-0.377923 0.1323,-0.708856 0.64829,-0.45408 0.69086,-1.321355 0.0971,-1.977496 -0.56857,-0.628261 -0.6375,-0.624276 -5.55835,0.321488 -4.26868,0.82042 -14.38891,2.608614 -21.78502,3.849303 -2.25557,0.37837 -4.48375,0.847236 -4.95152,1.041924 -1.45064,0.603771 -1.43377,2.463313 0.023,2.532092 0.30961,0.01463 0.096,0.136067 -0.47469,0.269888 -0.57069,0.133818 -1.19577,0.374563 -1.38906,0.534985 -0.48946,0.406209 -0.43846,1.279702 0.1101,1.885857 0.54832,0.605883 -0.86455,0.778468 13.42907,-1.640382 z m 9.60769,-4.697248 c 0.19099,-0.07643 0.4192,-0.06703 0.50712,0.02088 0.0879,0.08792 -0.0684,0.150453 -0.34727,0.138965 -0.30823,-0.0127 -0.37092,-0.07539 -0.15985,-0.159851 z m -83.00953,5.849238 c 0.54768,-0.581885 0.66077,-1.015687 0.77373,-2.967765 0.12501,-2.160431 0.17243,-2.30859 0.86171,-2.691936 l 0.72942,-0.405673 2.42396,2.447396 c 2.19398,2.215203 2.51748,2.447396 3.40978,2.447396 0.7227,0 1.20517,-0.204891 1.80756,-0.767612 1.16812,-1.091184 1.06964,-1.81034 -0.49883,-3.642736 -0.72631,-0.848529 -1.32163,-1.642946 -1.32292,-1.765374 -0.001,-0.122428 0.59335,-0.830942 1.32143,-1.574477 3.92358,-4.006858 3.2679,-10.747467 -1.24648,-12.814217 -1.28271,-0.587243 -1.71135,-0.654505 -3.35368,-0.526254 -2.35756,0.184103 -5.86279,0.90605 -6.83164,1.407062 -1.65686,0.856795 -1.66164,0.887532 -1.70925,11.000158 -0.0415,8.812717 -0.0212,9.227377 0.48222,9.867418 0.73673,0.936595 2.26497,0.930108 3.15299,-0.01339 z m 1.35946,-13.539294 0.0757,-2.579129 1.05833,-0.347084 c 1.73249,-0.568168 2.9343,-0.509582 3.66701,0.178761 1.24592,1.170482 0.95818,3.317623 -0.54904,4.097038 -0.65623,0.339352 -3.66658,1.229543 -4.15793,1.229543 -0.0934,0 -0.13575,-1.160608 -0.0941,-2.579129 z m 20.23545,9.612968 c 0.74138,-0.638236 0.74239,-0.64371 0.76924,-4.167187 0.097,-12.734443 0.0447,-11.839951 0.70072,-11.974491 0.32742,-0.06715 1.0551,-0.196371 1.61706,-0.28716 0.56611,-0.09146 1.31829,-0.461611 1.68673,-0.830046 0.58364,-0.583644 0.64503,-0.81611 0.50196,-1.900692 -0.17863,-1.354021 -1.31462,-2.690929 -2.28653,-2.690929 -0.28762,0 -2.10144,0.306136 -4.03072,0.680302 -1.92927,0.374168 -4.15722,0.804386 -4.951,0.956045 -1.05029,0.200668 -1.64785,0.494792 -2.19479,1.080302 -0.66572,0.712647 -0.74265,0.970616 -0.67344,2.25816 0.0659,1.226563 0.19054,1.537274 0.79781,1.98931 0.69266,0.51559 0.77675,0.519821 2.2397,0.11263 0.83601,-0.232693 1.61348,-0.365313 1.72772,-0.294714 0.11423,0.0706 0.20769,3.341433 0.20769,7.268522 v 7.140162 l 0.64943,0.64943 c 0.86743,0.867434 2.23774,0.871815 3.23842,0.01035 z m 81.60238,-1.312627 c 5.31241,-1.875314 9.32957,-7.03354 9.92191,-12.740221 0.13195,-1.271167 0.0811,-1.665111 -0.25018,-1.940089 -0.96893,-0.804141 -2.09091,0.319373 -3.09963,3.10385 -1.06975,2.952964 -3.25051,5.824373 -5.60865,7.384918 -0.58989,0.390366 -2.15601,1.069088 -3.48029,1.508273 -2.37224,0.78673 -2.40906,0.812009 -2.49474,1.712878 -0.0611,0.642244 0.0524,1.016264 0.38129,1.256771 0.71389,0.522007 2.68578,0.400047 4.63029,-0.28638 z m -69.15867,-0.679704 c 4.739,-0.941454 4.75696,-0.947912 5.24177,-1.885431 0.5355,-1.035556 0.48414,-1.903003 -0.16128,-2.723521 -0.64712,-0.822676 -1.25424,-0.86724 -3.98603,-0.292592 -1.05773,0.222502 -2.07755,0.3453 -2.26625,0.272886 -0.21844,-0.08382 -0.3431,-0.6174 -0.3431,-1.468551 0,-1.573204 0.0345,-1.595564 3.41975,-2.215372 1.44299,-0.264197 2.41214,-0.591143 2.74806,-0.927063 0.65472,-0.654719 0.69233,-2.399144 0.0721,-3.345674 -0.67881,-1.035987 -1.45947,-1.214803 -3.55792,-0.814962 -1.01163,0.192757 -1.96381,0.273534 -2.11595,0.179504 -0.46795,-0.289211 -0.66614,-2.256936 -0.26063,-2.587704 0.1958,-0.159716 1.24897,-0.425106 2.34038,-0.589757 1.09141,-0.16465 2.3734,-0.425095 2.84887,-0.57877 2.5629,-0.828337 1.79148,-5.016222 -0.91861,-4.987007 -1.68156,0.01812 -7.38279,1.183272 -8.10481,1.656358 -0.38557,0.252634 -0.79759,0.873799 -0.9546,1.439166 -0.39613,1.426422 -0.37405,17.914876 0.025,18.673021 0.63654,1.209326 0.83676,1.215877 5.9732,0.195469 z m 16.57867,-2.683621 c 0.9451,-0.74341 1.1932,-1.269233 3.60476,-7.639793 1.14583,-3.026926 2.74511,-6.998986 3.55396,-8.826796 0.80885,-1.827813 1.47063,-3.680706 1.47063,-4.117541 0,-0.929008 -0.95612,-2.156465 -1.71979,-2.207845 -1.02238,-0.06879 -1.95442,0.334291 -2.48011,1.072563 -0.55542,0.780005 -3.3844,7.44007 -4.65407,10.956726 -1.11793,3.096366 -1.23592,3.077845 -2.45426,-0.38522 -0.57739,-1.641165 -1.38494,-4.089548 -1.79457,-5.440849 -0.89684,-2.958531 -1.53435,-3.760798 -2.98847,-3.760798 -1.30191,0 -2.3556,0.791527 -2.56883,1.929693 -0.16496,0.88055 0.53763,3.453477 2.00182,7.330723 0.41215,1.091406 1.41549,3.82714 2.22965,6.079408 1.72297,4.766426 2.29405,5.562258 3.99141,5.562258 0.72039,0 1.35011,-0.192458 1.80787,-0.552529 z m 16.41886,-2.769336 c 2.62801,-0.517339 5.04052,-1.11175 5.36114,-1.320916 0.59757,-0.389837 0.98794,-1.694349 0.82906,-2.770494 -0.049,-0.331886 -0.41784,-0.847974 -0.81966,-1.146866 l -0.73057,-0.543438 -2.9318,0.583602 c -1.61249,0.320979 -3.03991,0.51679 -3.17204,0.435134 -0.13212,-0.08166 -0.24022,-0.794017 -0.24022,-1.583021 0,-1.274572 0.0664,-1.448376 0.59531,-1.558499 0.32742,-0.06817 1.54674,-0.306736 2.7096,-0.530151 1.16285,-0.223414 2.413,-0.631094 2.77812,-0.905957 0.58483,-0.440272 0.66341,-0.69552 0.66026,-2.144667 -0.005,-2.096365 -0.43613,-2.508528 -2.37767,-2.270739 -4.27025,0.522992 -4.06003,0.532345 -4.241,-0.188674 -0.0913,-0.363646 -0.12688,-1.002983 -0.0791,-1.420749 0.0946,-0.827852 -0.0265,-0.781804 4.74307,-1.802715 3.01349,-0.645025 4.02045,-1.930794 2.99181,-3.820199 -0.85214,-1.565196 -1.45884,-1.637451 -6.58974,-0.784799 -4.24,0.704601 -4.53964,0.793382 -5.22552,1.548328 l -0.7276,0.800867 -0.0661,7.602598 c -0.10729,12.331213 -0.13692,11.693086 0.56946,12.265072 0.3375,0.273294 0.74221,0.496898 0.89936,0.496898 0.15715,0 2.43591,-0.423277 5.06392,-0.940615 z m 11.67401,-2.515787 0.7771,-0.81057 0.085,-5.671722 c 0.0467,-3.119448 0.18875,-5.671722 0.31559,-5.671722 0.12684,0 2.60286,2.24953 5.50226,4.998958 2.89941,2.749426 5.51777,5.130676 5.81858,5.291667 1.26137,0.67506 2.91247,0.03589 3.58876,-1.389269 0.37422,-0.788609 0.43255,-2.135195 0.43255,-9.985197 v -9.07366 l -0.71096,-0.742082 c -0.93625,-0.977236 -1.93858,-0.967571 -3.05518,0.02946 l -0.86407,0.771543 -0.0806,5.776894 c -0.0444,3.177291 -0.18572,5.882544 -0.31416,6.011674 -0.13548,0.136208 -2.46251,-1.918866 -5.54255,-4.894791 -2.91996,-2.821265 -5.66122,-5.276847 -6.09167,-5.456851 -1.19371,-0.499171 -2.65416,0.06307 -3.25556,1.253321 -0.42519,0.841517 -0.46141,1.767384 -0.39687,10.143934 l 0.071,9.217895 0.62463,0.505542 c 0.95669,0.774308 2.17664,0.654121 3.09619,-0.305025 z m -126.22289,-3.154704 c 2.68941,-0.500814 4.68409,-1.005536 4.96094,-1.255289 0.61505,-0.554855 0.58487,-1.201732 -0.0843,-1.807345 -0.53613,-0.485188 -0.65138,-0.477703 -5.6224,0.365075 -5.32615,0.902988 -6.31773,1.276014 -6.48924,2.44122 -0.12616,0.857094 0.65379,1.38366 1.81107,1.222714 0.50932,-0.07084 2.9501,-0.505704 5.42396,-0.966375 z m 152.53228,-1.470689 0.66146,-0.660643 0.0784,-7.324233 c 0.0506,-4.72599 0.17939,-7.445941 0.36312,-7.66732 0.15661,-0.188701 0.6928,-0.343091 1.19152,-0.343091 2.01608,0 3.1784,-1.284983 2.91806,-3.225982 -0.17046,-1.27086 -1.13584,-2.330268 -2.12346,-2.330268 -0.32206,0 -2.72644,0.360405 -5.34306,0.800897 -4.37041,0.735735 -4.81965,0.862896 -5.52157,1.56292 -0.57585,0.574299 -0.79484,1.082162 -0.88895,2.061551 -0.11576,1.204823 -0.0634,1.351235 0.71824,2.008958 0.94869,0.798269 1.23215,0.839753 2.71083,0.396729 0.86269,-0.258466 1.08819,-0.246996 1.30034,0.06615 0.15487,0.228595 0.22532,3.141985 0.17764,7.346026 l -0.079,6.967183 0.77077,0.664027 c 0.93523,0.805707 2.05364,0.687909 3.06569,-0.3229 z m -121.22047,-3.835365 c 4.89767,-0.879126 11.64329,-2.074421 14.99027,-2.656208 10.76051,-1.87044 14.80312,-2.62799 15.41198,-2.888075 0.66408,-0.283668 0.8295,-1.513123 0.27781,-2.064806 -0.50596,-0.505962 -1.68994,-0.389765 -8.76206,0.859907 -8.59169,1.518189 -27.30544,4.796792 -29.61825,5.189047 -1.38504,0.234905 -1.90724,0.454348 -2.3151,0.972865 -0.28967,0.36825 -0.52667,0.792941 -0.52667,0.943759 0,0.421722 0.8298,1.241922 1.25646,1.241922 0.20938,0 4.38788,-0.719286 9.28556,-1.598411 z m -15.35196,-6.467642 c 1.50187,-0.223716 3.28551,-0.531095 3.96364,-0.683067 1.37187,-0.30744 10.9966,-2.009772 17.11818,-3.027698 12.9791,-2.158233 22.90551,-4.011406 23.23116,-4.337058 0.16309,-0.163089 -0.41454,-1.663821 -1.60699,-4.175053 -4.90687,-10.333646 -6.11738,-20.314509 -3.46721,-28.587799 0.44053,-1.37523 0.72462,-2.57675 0.63132,-2.67006 -0.40537,-0.40536 -8.67081,2.82319 -12.57058,4.91018 -7.6179,4.07679 -14.01543,9.375265 -19.79781,16.396682 -3.81802,4.636137 -8.71262,13.438157 -10.50317,18.887973 -1.02014,3.104965 -1.07074,4.107902 -0.19355,3.836382 0.25538,-0.07905 1.69313,-0.326766 3.19501,-0.550482 z m 65.86081,-2.374908 c 3.98099,-0.768297 16.36821,-2.943042 30.23038,-5.307358 5.45703,-0.930746 13.55327,-2.342243 17.99166,-3.136662 4.43838,-0.794417 9.55807,-1.706192 11.37708,-2.026163 1.81901,-0.319974 3.57518,-0.749232 3.90261,-0.953911 0.78539,-0.490963 0.77919,-1.550177 -0.0121,-2.068652 -0.55183,-0.361574 -1.09046,-0.313349 -5.88697,0.527092 -15.20401,2.664031 -31.99866,5.578104 -38.22019,6.631659 -3.8563,0.653026 -9.21412,1.59389 -11.90625,2.090806 -2.69214,0.49692 -6.02589,1.090422 -7.40833,1.318898 -4.80493,0.794107 -5.27831,0.928066 -5.73325,1.622377 -0.34042,0.519557 -0.367,0.784254 -0.13079,1.302671 0.38922,0.854242 1.36658,0.854115 5.79616,-7.94e-4 z m 80.1444,-3.99539 c 1.58496,-0.997744 1.85117,-5.020905 0.5185,-7.835739 -1.26343,-2.668566 -4.66237,-5.244575 -6.92002,-5.244575 -0.74917,0 -1.94278,0.944607 -2.26521,1.792649 -0.16622,0.437198 -0.15552,0.959477 0.0313,1.525416 0.28491,0.863309 0.60119,1.063823 2.6852,1.7024 0.53292,0.163301 1.29373,0.618546 1.69068,1.011659 1.15885,1.147651 1.41684,2.06272 1.25349,4.446029 -0.14323,2.089679 -0.13232,2.139677 0.59173,2.709208 0.76722,0.603499 1.32491,0.578771 2.41437,-0.107047 z m -87.22027,-3.959521 c 3.71078,-0.654947 9.18639,-1.610527 12.16802,-2.123509 2.98163,-0.512982 5.51595,-1.027507 5.63183,-1.143384 0.11588,-0.115879 0.55251,-1.510178 0.97028,-3.09844 2.13037,-8.099009 4.78583,-12.312882 11.06164,-17.553383 0.76398,-0.63795 1.38906,-1.25432 1.38906,-1.36971 0,-0.42821 -3.40605,-2.61786 -6.48229,-4.16727 -7.41486,-3.73466 -15.17408,-5.71141 -24.60625,-6.26875 -3.55575,-0.2101 -10.06858,0.28606 -10.91368,0.83143 -0.87387,0.56393 -2.40654,3.80699 -3.16819,6.70375 -0.56569,2.15145 -0.6693,3.1484 -0.68933,6.63306 -0.0134,2.335786 0.12694,4.955192 0.32608,6.085413 0.53999,3.064597 2.20295,7.8325 4.08103,11.700769 1.74716,3.598603 2.62425,4.970705 3.1734,4.964408 0.17134,-0.0019 3.34762,-0.53944 7.0584,-1.194384 z m 29.23646,-5.131859 c 1.60073,-0.291377 6.00604,-1.071596 9.78958,-1.733822 8.90531,-1.558676 9.3927,-1.673638 9.3927,-2.215446 0,-1.281282 -6.26645,-8.137509 -9.41283,-10.298731 -2.15123,-1.477658 -4.98007,-0.512688 -8.33918,2.844657 -1.66204,1.661162 -2.26004,2.509731 -3.46,4.909769 -1.50248,3.005108 -2.52453,6.129351 -2.24415,6.860011 0.10526,0.274299 0.36987,0.37556 0.76234,0.291732 0.33062,-0.07061 1.91081,-0.366792 3.51154,-0.65817 z M 130.23152,-21.52949 c -0.0907,-0.23646 -0.15743,-0.56902 -0.14821,-0.73902 0.009,-0.17 0.13085,-0.0239 0.27027,0.32464 0.13942,0.34854 0.20612,0.6811 0.14821,0.73901 -0.0579,0.0579 -0.17953,-0.0882 -0.27027,-0.32463 z m -0.40867,-1.86391 c 0.0127,-0.30822 0.0754,-0.37092 0.15985,-0.15985 0.0764,0.19099 0.067,0.4192 -0.0209,0.50712 -0.0879,0.0879 -0.15046,-0.0683 -0.13897,-0.34727 z m -0.26459,-1.32291 c 0.0127,-0.30823 0.0754,-0.37092 0.15985,-0.15986 0.0764,0.191 0.067,0.4192 -0.0209,0.50712 -0.0879,0.0879 -0.15045,-0.0683 -0.13896,-0.34726 z m -0.24369,-1.69775 c 0,-0.3638 0.0601,-0.51263 0.13345,-0.33073 0.0734,0.1819 0.0734,0.47956 0,0.66146 -0.0734,0.1819 -0.13345,0.0331 -0.13345,-0.33073 z"
         id="path13282" /></g></g></svg>
